<svg width="35" height="34" fill="none" xmlns="http://www.w3.org/2000/svg"><path d="M10.206 0C4.578 0 0 4.437 0 9.887V24.01c0 5.449 4.582 9.882 10.211 9.882h14.583C30.422 33.89 35 29.454 35 24.003V9.882C35 4.432 30.418 0 24.789 0H10.205zm17.502 5.648c.805 0 1.459.633 1.459 1.413 0 .779-.654 1.412-1.459 1.412S26.25 7.84 26.25 7.06s.653-1.413 1.458-1.413zM17.5 8.473c4.826 0 8.75 3.8 8.75 8.472 0 4.673-3.924 8.473-8.75 8.473-4.826 0-8.75-3.8-8.75-8.473 0-4.672 3.924-8.472 8.75-8.472zm0 2.824c-1.547 0-3.03.595-4.125 1.654a5.559 5.559 0 00-1.708 3.994c0 1.498.614 2.935 1.708 3.994a5.932 5.932 0 004.125 1.655c1.547 0 3.03-.595 4.125-1.655a5.559 5.559 0 001.708-3.994 5.559 5.559 0 00-1.708-3.994 5.932 5.932 0 00-4.125-1.654z" fill="#fff"/></svg>