<svg width="35" height="35" fill="none" xmlns="http://www.w3.org/2000/svg"><g clip-path="url(#clip0)"><path d="M35 6.648a14.96 14.96 0 01-4.134 1.133 7.135 7.135 0 003.156-3.966 14.34 14.34 0 01-4.55 1.737 7.19 7.19 0 00-5.241-2.27c-3.973 0-7.17 3.224-7.17 7.176 0 .57.047 1.116.166 1.637-5.966-.291-11.244-3.15-14.79-7.506a7.224 7.224 0 00-.982 3.627 7.186 7.186 0 003.187 5.963 7.086 7.086 0 01-3.242-.883v.078c0 3.487 2.487 6.383 5.749 7.05-.584.16-1.22.237-1.881.237-.46 0-.924-.026-1.359-.123.93 2.842 3.568 4.931 6.705 4.999a14.418 14.418 0 01-8.897 3.06c-.588 0-1.153-.026-1.717-.098 3.178 2.05 6.945 3.22 11.008 3.22C24.21 31.719 31.43 20.78 31.43 11.3c0-.318-.01-.624-.026-.928C32.828 9.363 34.024 8.1 35 6.648z" fill="#fff"/></g><defs><clipPath id="clip0"><path fill="#fff" d="M0 0h35v35H0z"/></clipPath></defs></svg>