<svg  display = 'none'>
<symbol id='vk' width="50"  height="50" viewBox="0 0 50 50">
<g>
<path d="M49.5544 36.1814C49.42 35.9564 48.5887 34.15 44.5884 30.4372C40.4006 26.5494 40.9631 27.1807 46.0072 20.4584C49.0793 16.3643 50.3076 13.8641 49.9231 12.7953C49.5575 11.7765 47.298 12.0452 47.298 12.0452L39.7849 12.089C39.7849 12.089 39.2286 12.014 38.813 12.2609C38.4098 12.5047 38.1504 13.0672 38.1504 13.0672C38.1504 13.0672 36.9597 16.2362 35.3721 18.9301C32.0249 24.6149 30.6842 24.9149 30.1373 24.5618C28.8653 23.7399 29.1841 21.2553 29.1841 19.4927C29.1841 13.9829 30.0185 11.6858 27.5559 11.092C26.7371 10.8952 26.137 10.7639 24.0462 10.742C21.3648 10.7139 19.0927 10.7514 17.8083 11.3796C16.952 11.7983 16.2925 12.7328 16.6957 12.7859C17.1926 12.8516 18.3177 13.0891 18.9146 13.9016C19.6865 14.9486 19.6584 17.305 19.6584 17.305C19.6584 17.305 20.1022 23.7899 18.624 24.5962C17.6083 25.1493 16.2175 24.0211 13.2329 18.8614C11.7047 16.2206 10.5484 13.2985 10.5484 13.2985C10.5484 13.2985 10.3265 12.7547 9.92956 12.464C9.44827 12.1109 8.77322 11.9984 8.77322 11.9984L1.62894 12.0421C1.62894 12.0421 0.556989 12.0734 0.16321 12.539C-0.186816 12.9547 0.135083 13.811 0.135083 13.811C0.135083 13.811 5.72925 26.8963 12.061 33.4937C17.8708 39.541 24.465 39.1441 24.465 39.1441H27.4527C27.4527 39.1441 28.3559 39.0441 28.8153 38.5472C29.2404 38.0909 29.2247 37.2346 29.2247 37.2346C29.2247 37.2346 29.1654 33.2249 31.028 32.6343C32.8625 32.053 35.2189 36.5096 37.716 38.2253C39.6036 39.5223 41.0381 39.2379 41.0381 39.2379L47.7167 39.1441C47.7167 39.1441 51.2107 38.9285 49.5544 36.1814Z" fill="white"/>
</g>
<defs>
<clipPath id="clip0">
<rect width="50" height="50" fill="white"/>
</clipPath>
</defs>
</svg>
