<?xml version="1.0" encoding="utf-8"?><svg viewBox="0 0 1167.5 470.69" xmlns="http://www.w3.org/2000/svg" xmlns:xlink="http://www.w3.org/1999/xlink"><style>:root>svg{display:none}:root>svg:target{display:block}</style><svg viewBox="0 0 39 25" fill="none" id="50cent" xmlns="http://www.w3.org/2000/svg"><path d="M28.202 0c-5.01 0-10.343 1.615-10.343 4.686v.647c-2.343-.97-4.929-1.455-7.516-1.455C5.334 3.878 0 5.494 0 8.565V20.12c0 3.071 5.334 4.688 10.343 4.688 3.799 0 7.112-.889 8.89-2.263 1.857 1.454 5.494 2.263 8.888 2.263 5.01 0 10.343-1.616 10.343-4.688V4.606C38.545 1.615 33.212 0 28.202 0zM10.426 5.414c3.07 0 5.897.646 7.515 1.615v2.909c-1.617.97-4.444 1.616-7.515 1.616-5.414 0-8.728-1.778-8.728-3.071 0-1.292 3.314-3.069 8.728-3.069zm-8.648 5.655c1.859 1.374 5.334 2.101 8.647 2.101 2.585.081 5.171-.403 7.515-1.454v2.021c-1.617.97-4.444 1.615-7.515 1.615-5.414 0-8.728-1.776-8.728-3.069V11.07h.081v-.001zm0 3.879c1.939 1.373 5.414 2.101 8.729 2.101 2.586.081 5.09-.403 7.514-1.454v2.02c-1.615.971-4.443 1.616-7.514 1.616-5.415 0-8.729-1.776-8.729-3.07v-1.213zm8.648 8.161c-5.414 0-8.728-1.778-8.728-3.07v-1.212c1.939 1.373 5.414 2.101 8.728 2.101 2.585.081 5.171-.404 7.515-1.454v.646c0 .404.08.809.322 1.212-1.292.889-4.12 1.777-7.837 1.777zm26.503-2.99c0 1.294-3.313 3.071-8.727 3.071s-8.728-1.777-8.728-3.071v-1.292c1.94 1.373 5.415 2.101 8.728 2.101 3.313 0 6.707-.728 8.727-2.101v1.292zm0-3.877c0 1.292-3.313 3.069-8.727 3.069s-8.728-1.777-8.728-3.069v-1.294c1.94 1.373 5.415 2.101 8.728 2.101 3.313 0 6.707-.728 8.727-2.101v1.294zm0-3.88c0 1.293-3.313 3.07-8.727 3.07s-8.646-1.777-8.646-3.07v-1.293c1.938 1.374 5.413 2.101 8.646 2.101 3.233 0 6.707-.727 8.727-2.101v1.293zm0-3.879c0 1.293-3.313 3.071-8.727 3.071s-8.728-1.778-8.728-3.071V7.191c1.94 1.373 5.415 2.101 8.728 2.101 3.313 0 6.707-.728 8.727-2.101v1.292zm-8.727-.807c-5.414 0-8.728-1.778-8.728-3.07 0-1.293 3.313-3.07 8.728-3.07 5.413 0 8.727 1.777 8.727 3.07 0 1.291-3.314 3.07-8.727 3.07z" fill="#242627"/></svg><svg viewBox="0 0 1167.5 470.69" id="blue-background" xmlns="http://www.w3.org/2000/svg"><path fill="#fff" d="M-1-1h1158v450H-1z"/><g><path stroke="#000" stroke-linecap="undefined" stroke-linejoin="undefined" stroke-width="1.5" fill="none" d="M837.5 1.453l317 223"/><path stroke-width="1.5" stroke="#003264" fill="#003264" d="M-.5-.547h836v458H-.5z"/><path stroke="#0f3264" stroke-width="1.5" fill="#003264" d="M746.5 224.453h420v225h-420z"/><path stroke="#003264" stroke-width="1.5" fill="#003264" d="M818.534-13.235L1165.53 232.04l-130.451 184.55-346.995-245.276z"/></g></svg><svg viewBox="0 0 30 35" fill="none" id="brains" xmlns="http://www.w3.org/2000/svg"><path fill-rule="evenodd" clip-rule="evenodd" d="M0 17.635c0 2.036.882 3.87 2.285 5.145A5.912 5.912 0 002 24.602c0 3.4 2.857 6.11 6.254 5.966.842 3.002 3.613 4.053 6.746 4.053 3.131 0 5.906-1.05 6.747-4.053 3.412.14 6.253-2.579 6.253-5.966 0-.627-.096-1.237-.285-1.822a6.935 6.935 0 00-.034-10.32A5.163 5.163 0 0028 10.67c0-3.076-2.74-5.615-6.246-5.937C20.925 1.716 18.156.65 15 .65c-3.143 0-5.927 1.05-6.756 4.082C4.74 5.054 2 7.593 2 10.669c0 .616.107 1.216.319 1.791A6.937 6.937 0 000 17.635zM19.944 5.84a1 1 0 001.127.85c2.725.03 4.929 1.803 4.929 3.98 0 .217-.022.431-.066.642A6.985 6.985 0 0023 10.67c-1.08 0-2.08.343-2.897.924a1 1 0 01-.374-.57.978.978 0 01.266-.933.992.992 0 000-1.407 1.003 1.003 0 00-1.414 0 2.958 2.958 0 00-.798 2.797 2.97 2.97 0 00.952 1.57A4.929 4.929 0 0018 15.645c0 .55.448.995 1 .995s1-.445 1-.995a2.996 2.996 0 013-2.986c2.757 0 5 2.232 5 4.976 0 2.744-2.243 4.976-5 4.976-.552 0-1 .446-1 .996s.448.995 1 .995a6.984 6.984 0 002.947-.649c.035.213.053.43.053.649 0 2.546-2.38 4.429-4.838 3.893a1 1 0 00-1.206.85c-.218 1.754-1.247 2.992-3.956 3.241V2.684c2.667.245 3.705 1.451 3.944 3.155zM4 10.67c0-2.196 2.243-3.981 5-3.981h.067a.998.998 0 00.99-.857c.238-1.692 1.26-2.902 3.943-3.147v29.902c-2.217-.203-3.689-1.087-3.956-3.244a1 1 0 00-1.214-.85C6.432 29.037 4 27.182 4 24.603c0-.22.018-.436.053-.649A6.984 6.984 0 007 24.602c.552 0 1-.446 1-.995a.998.998 0 00-1-.996c-2.757 0-5-2.232-5-4.976 0-2.744 2.243-4.976 5-4.976 1.654 0 3 1.34 3 2.986 0 .55.448.995 1 .995s1-.445 1-.995a4.93 4.93 0 00-.848-2.77c.376-.385.647-.87.772-1.417a2.96 2.96 0 00-.804-2.775 1.003 1.003 0 00-1.414 0 .992.992 0 000 1.407c.353.351.305.764.268.925a1.023 1.023 0 01-.245.463A4.987 4.987 0 007 10.668c-1.047 0-2.041.231-2.934.643A3.194 3.194 0 014 10.67zm17 15.958a1 1 0 100-1.998 1 1 0 01-1-.999v-1.998a1 1 0 011-1c1.654 0 3-1.344 3-2.997a1 1 0 00-2 0 1 1 0 01-1 1c-1.654 0-3 1.344-3 2.997v1.998a3.002 3.002 0 003 2.997zM8 17.635a1 1 0 001 1c1.654 0 3 1.344 3 2.997v1.998a3.002 3.002 0 01-3 2.997 1 1 0 110-1.998 1 1 0 001-.999v-1.998a1 1 0 00-1-1c-1.654 0-3-1.344-3-2.997a1 1 0 012 0z" fill="#000"/></svg><svg viewBox="0 0 30 30" id="calculator" xmlns="http://www.w3.org/2000/svg"><path d="M0 14.483h14.483V0H0v14.483zm4.137-8.276h2.07V4.138a1.035 1.035 0 012.07 0v2.07h2.068a1.035 1.035 0 010 2.068H8.276v2.068a1.035 1.035 0 01-2.07 0V8.276H4.138a1.035 1.035 0 010-2.069zM15.517 0v14.483H30V0H15.517zm10.346 8.276h-6.208a1.035 1.035 0 010-2.069h6.207a1.034 1.034 0 010 2.07zM15.517 30H30V15.517H15.517V30zm4.138-9.826h6.207a1.035 1.035 0 010 2.068h-6.207c-.571 0-1.035-.464-1.035-1.035 0-.57.464-1.033 1.035-1.033zm0 3.101h6.207a1.035 1.035 0 010 2.07h-6.207a1.036 1.036 0 010-2.07zM0 30h14.483V15.517H0V30zm3.923-9.096a1.034 1.034 0 011.463-1.461l1.855 1.854 1.855-1.854a1.033 1.033 0 111.463 1.461L8.704 22.76l1.855 1.854a1.035 1.035 0 01-1.463 1.463L7.24 24.223l-1.855 1.854a1.031 1.031 0 01-1.464 0 1.036 1.036 0 010-1.463l1.855-1.854-1.854-1.856z"/></svg><svg viewBox="0 0 8 13" id="classmates" xmlns="http://www.w3.org/2000/svg"><path d="M3.473 9.257c-.999-.1-1.9-.336-2.671-.916C.706 8.27.608 8.2.52 8.12.183 7.808.15 7.451.416 7.083c.228-.314.612-.399 1.01-.218.078.035.151.079.222.126 1.437.949 3.411.975 4.854.042.143-.105.296-.19.473-.235.344-.085.665.037.85.326.211.33.208.654-.052.91a3.942 3.942 0 01-1.411.877c-.505.188-1.057.282-1.603.345.082.086.121.129.173.178.742.717 1.487 1.43 2.227 2.149.252.244.304.548.165.833a.883.883 0 01-.824.494c-.21-.014-.375-.115-.521-.257-.56-.541-1.13-1.072-1.68-1.624-.16-.16-.236-.13-.377.01a110.06 110.06 0 01-1.712 1.65c-.258.245-.566.29-.866.15-.319-.149-.522-.462-.506-.776.01-.212.12-.375.271-.52.735-.705 1.467-1.411 2.2-2.117.048-.047.093-.096.164-.169z"/><path d="M4.081 6.803C2.299 6.797.837 5.378.848 3.663.858 1.929 2.32.532 4.12.536 5.924.541 7.371 1.958 7.362 3.71c-.01 1.712-1.48 3.1-3.281 3.093zm1.62-3.136c-.003-.852-.71-1.53-1.594-1.53-.892-.001-1.604.69-1.597 1.548.006.849.718 1.522 1.605 1.519C5 5.2 5.704 4.518 5.701 3.667z"/></svg><svg fill="none" viewBox="0 0 12 12" id="close" xmlns="http://www.w3.org/2000/svg"><path d="M11.293 1.043L6.69 5.646 6.336 6l.354.354 4.603 4.603-.336.336L6.354 6.69 6 6.336l-.354.354-4.603 4.603-.336-.336L5.31 6.354 5.664 6l-.354-.354L.707 1.043l.336-.336L5.646 5.31 6 5.664l.354-.354L10.957.707l.336.336z" fill="#fff" stroke="#fff"/></svg><svg viewBox="0 0 68 67" id="cubes" xmlns="http://www.w3.org/2000/svg"><path d="M67 36.464l-15.458-8.84c-.001-2.76-.004-5.445-.008-8.12-.003-2.898-.007-5.797-.007-8.802v-.005-.058a1.29 1.29 0 00-.993-1.256L34.419.171a1.289 1.289 0 00-1.278-.003L16.904 9.366a1.297 1.297 0 00-.676 1.13v.004c0 3.138.009 6.038.018 8.94.006 2.663.014 5.335.015 8.181L.677 36.448a1.273 1.273 0 00-.36.286c-.197.225-.315.52-.317.842v18.002c0 .465.25.894.655 1.123l16.492 9.34a1.29 1.29 0 001.312 0l15.717-8.877 15.67 8.876a1.289 1.289 0 001.312 0l16.186-9.142A1.29 1.29 0 0068 55.776V37.718a1.296 1.296 0 00-1-1.254zM48.954 19.506c.003 2.68.007 5.36.008 8.126L35.32 35.6V20.604l13.626-7.695c0 2.23.003 4.414.006 6.597zM33.776 2.775l13.85 7.918L34.03 18.37l-13.893-7.868 13.64-7.727zm-1.038 17.829V35.57l-13.895-7.944c-.001-2.855-.01-5.523-.017-8.193-.006-2.204-.012-4.408-.015-6.717l13.927 7.888zM16.511 62.717l-13.93-7.89V39.797l13.93 7.888v15.033zm1.292-17.266L3.908 37.583l13.64-7.725L31.354 37.8l-13.55 7.651zm1.29 2.235L32.7 40.002v15.033L19.093 62.72V47.686zm30.115 15.03l-13.91-7.878V39.624l13.91 8.053v15.04zm1.3-17.268l-13.49-7.81 13.241-7.774 13.835 7.91-13.587 7.674zm14.907 9.577L51.791 62.72V47.686l13.624-7.693v15.032z"/></svg><svg viewBox="0 0 24 27" id="desk" xmlns="http://www.w3.org/2000/svg"><path fill-rule="evenodd" clip-rule="evenodd" d="M12.507 0h-1.563a.772.772 0 00-.782.763v2.339H.782A.772.772 0 000 3.864V19.17c0 .421.35.762.782.762h21.887a.772.772 0 00.782-.762V3.864a.772.772 0 00-.782-.762h-9.38V.762A.772.772 0 0012.507 0zm1.563 6.915v.763h3.909c.432 0 .782.341.782.763v3.813h.781c.432 0 .782.341.782.763v3.051c0 .422-.35.763-.782.763h-3.126a.772.772 0 01-.782-.763v-3.05c0-.423.35-.764.782-.764h.781v-3.05H14.07v.762c0 .422-.35.763-.781.763h-.782v1.525h.782c.432 0 .781.341.781.763v3.051c0 .422-.35.763-.781.763h-3.127a.772.772 0 01-.782-.763v-3.05c0-.423.35-.764.782-.764h.782V10.73h-.782a.772.772 0 01-.782-.763v-.762H6.254v3.05h.781c.432 0 .782.341.782.763v3.051c0 .422-.35.763-.782.763H3.908a.772.772 0 01-.781-.763v-3.05c0-.423.35-.764.781-.764h.782V8.441c0-.422.35-.763.782-.763H9.38v-.763c0-.421.35-.762.782-.762h3.127c.432 0 .781.34.781.762zM4.508 21.458l-1.25 3.05h-.914a.772.772 0 00-.782.763c0 .422.35.763.782.763h3.247c.32 0 .607-.19.726-.48l.43-1.045h9.956l.428 1.046c.12.29.407.48.726.48h3.248a.772.772 0 00.781-.764.772.772 0 00-.781-.762h-.914l-1.25-3.051h-3.49l.626 1.525H7.372l.625-1.525H4.508zm7.997-13.78H10.94v1.526h1.564V7.678zM6.252 13.78H4.688v1.525h1.564V13.78zm4.69 0h1.563v1.525H10.94V13.78zm7.817 0h-1.564v1.525h1.564V13.78z"/></svg><svg viewBox="0 0 8 12" id="facebook" xmlns="http://www.w3.org/2000/svg"><path d="M6.868.049L5.348.047c-1.708 0-2.81 1.138-2.81 2.9v1.337H1.008a.24.24 0 00-.24.241v1.937c0 .132.108.24.24.24h1.528v4.89c0 .133.107.238.239.238H4.77a.237.237 0 00.239-.239V6.702h1.788a.24.24 0 00.238-.24V4.525a.24.24 0 00-.238-.241H5.009V3.15c0-.545.13-.82.835-.82h1.024a.24.24 0 00.239-.242V.29a.24.24 0 00-.24-.24z"/></svg><svg viewBox="0 0 72 72" id="hand" xmlns="http://www.w3.org/2000/svg"><path d="M71.287 51.01c-.053-.046-.117-.1-.19-.17-4.033-3.834-8.195-5.308-12.372-4.376a5.134 5.134 0 00-1.783.741l-14.504 9.157c-.424-3.915-3.305-7.963-6.31-9.21l-18.387-4.924-.226-.065c-.686-.203-1.332-.32-2.31.295L.83 51.535c-.196.121-.654.406-.793 1.017-.14.61.15 1.057.311 1.304L9.851 68.95c.094.153.382.617 1.011.754.627.136 1.093-.167 1.257-.275a304.63 304.63 0 001.943-1.228c4.308.358 8.971 1.126 13.482 1.869 4.344.715 8.835 1.455 13.078 1.843l1.008.084.11.003c.336 0 .617-.083.93-.277l28.295-17.866c.34-.213.97-.612 1.03-1.411.059-.775-.46-1.221-.708-1.436zM2.334 53.945l-.798-1.177.905 1.097a.895.895 0 01-.107.08zM41.43 69.146l-.555-.046c-4.123-.376-8.561-1.107-12.853-1.814-4.635-.765-9.427-1.554-13.906-1.915a3.22 3.22 0 00-.26-.011c-.567 0-.895.175-1.265.409-.322.205-.644.41-.968.614L3.377 53.287 16.7 44.874l18.383 4.914c2.224.989 4.51 4.644 4.518 7.563l-17.558-3.962c-.777-.176-1.55.298-1.73 1.058-.18.76.305 1.519 1.081 1.694l19.078 4.305c.398.092.799.014 1.119-.19L58.5 49.58c.33-.208.508-.283.861-.362 2.962-.66 5.897.306 8.953 2.951L41.43 69.146zM27.232 38.87c.397 0 .791-.17 1.065-.499 4.15-4.977 11.34-7.949 19.234-7.949 7.9 0 15.091 2.972 19.236 7.948a1.384 1.384 0 002.127-1.77c-3.28-3.937-8.206-6.753-13.868-8.082 4.694-2.587 7.884-7.587 7.884-13.322C62.91 6.816 56.105 0 47.74 0c-8.367 0-15.175 6.817-15.175 15.196 0 5.689 3.143 10.65 7.777 13.255-5.788 1.298-10.833 4.142-14.174 8.15a1.383 1.383 0 001.064 2.268zm8.103-23.674c0-6.854 5.566-12.43 12.406-12.43 6.839 0 12.401 5.576 12.401 12.43s-5.563 12.43-12.4 12.43c-6.841 0-12.407-5.576-12.407-12.43z"/></svg><svg viewBox="0 0 74 74" id="hat" xmlns="http://www.w3.org/2000/svg"><path d="M37.006 45.229c-.73 0-1.279-.326-2.109-.82l-4.786-2.834L1.748 24.779c-1.063-.63-1.765-1.044-1.748-2 .017-.924.74-1.318 1.378-1.665.19-.104.422-.23.69-.39 5.421-3.23 10.913-6.588 16.224-9.835C23.875 7.475 29.647 3.945 35.358.553c.49-.291.978-.553 1.561-.553.602 0 1.02.26 1.465.534l.305.187c5.6 3.327 11.291 6.788 16.796 10.135 5.628 3.423 11.448 6.963 17.17 10.359l.23.134c.472.276 1.12.653 1.115 1.51-.004.853-.657 1.226-1.09 1.471l-.284.164a9610.9 9610.9 0 00-17.08 10.153 9460.919 9460.919 0 01-16.28 9.678c-.974.58-1.521.904-2.26.904zM3.731 22.846l32.534 19.266c.287.17.584.347.743.421.173-.078.503-.275.826-.465 5.508-3.265 10.925-6.49 16.342-9.716 5.323-3.17 10.644-6.338 15.99-9.506-5.369-3.198-10.805-6.503-16.072-9.707-5.498-3.344-11.184-6.8-16.773-10.122l-.347-.211-.083-.053a9.28 9.28 0 00-.165.097c-5.697 3.383-11.461 6.909-17.037 10.318-5.222 3.194-10.619 6.495-15.958 9.678z"/><path d="M36.993 62.023a1.32 1.32 0 01-.713-.207L8.527 44.928V28.713a1.337 1.337 0 012.675 0v14.714l24.455 14.881V45.326a1.337 1.337 0 012.674 0v12.97l24.467-14.89V28.694a1.337 1.337 0 012.675 0v16.215L37.826 61.733a1.327 1.327 0 01-.833.29zM60.684 73.938H48.223v-12.96c0-3.157 2.796-5.727 6.23-5.727 3.436 0 6.23 2.569 6.23 5.728v12.96h.001zm-9.787-2.672h7.112V60.979c0-1.685-1.595-3.056-3.554-3.056-1.96 0-3.557 1.371-3.557 3.056v10.287z"/><path d="M54.336 57.038a1.337 1.337 0 01-1.338-1.336v-21.23l-17.35-10.666a1.335 1.335 0 01-.437-1.837 1.337 1.337 0 011.839-.438L55.673 32.98v22.723c0 .737-.598 1.335-1.337 1.335z"/></svg><svg viewBox="0 0 16 17" id="instagram" xmlns="http://www.w3.org/2000/svg"><path fill-rule="evenodd" clip-rule="evenodd" d="M15.89 4.107c-.195-1.593-1.057-2.605-2.565-2.93-.625-.134-1.28-.172-1.923-.18C9.472.976 7.544.984 5.616.996c-.497.002-.995.04-1.488.098-.995.118-1.846.513-2.43 1.37-.437.641-.598 1.375-.625 2.136-.046 1.294-.06 2.59-.089 3.885h.03c0 .797-.013 1.595.004 2.39.015.674.031 1.35.108 2.018.184 1.594 1.053 2.604 2.562 2.93.626.135 1.28.173 1.923.18 1.92.023 3.84.015 5.761.003a12.902 12.902 0 001.515-.099c1.587-.193 2.594-1.059 2.918-2.573.135-.627.173-1.284.18-1.928.023-1.927.015-3.853.004-5.78a13.883 13.883 0 00-.1-1.518zM8.502 13.22c-2.578-.002-4.7-2.131-4.702-4.718C3.8 5.917 5.918 3.786 8.497 3.78c2.578-.006 4.705 2.117 4.714 4.704.01 2.596-2.12 4.74-4.708 4.737zM13.4 4.703c-.591.005-1.104-.501-1.109-1.098A1.104 1.104 0 0113.385 2.5a1.091 1.091 0 011.101 1.091A1.105 1.105 0 0113.4 4.703zm-4.86.742A3.04 3.04 0 005.46 8.46a3.04 3.04 0 003 3.095 3.04 3.04 0 003.092-3.029A3.04 3.04 0 008.54 5.445z"/></svg><svg fill="none" viewBox="0 0 95 59" id="light" xmlns="http://www.w3.org/2000/svg"><path d="M2 57l32.811-32.323a1 1 0 011.389-.014l16.305 15.405a1 1 0 001.371.003L71 24M64.063 17.224l18.174-5.477-4.344 18.478-13.83-13.001z"/></svg><svg viewBox="0 0 115 25" id="logo" xmlns="http://www.w3.org/2000/svg"><g clip-path="url(#nclip0)"><path d="M24.922 9.842c-1.259 0-2.266.935-2.266 2.166 0 1.23 1.007 2.165 2.266 2.165 1.259 0 2.266-.935 2.266-2.165a2.29 2.29 0 00-2.266-2.166zM52.063 7.185c-.756-2.904-2.568-4.921-5.388-6.053C45.467.64 44.158.492 42.9.442c-1.964-.048-3.978-.048-5.941 0-.403 0-.403 0-.403.394v18.209c0 .099.05.099.1.099h4.33c1.26 0 2.87-.05 3.374-.099 1.31-.148 2.568-.492 3.675-1.181 2.87-1.722 4.28-4.33 4.482-7.579 0-1.033-.151-2.067-.453-3.1zm-4.935 6.053c-.856 1.181-2.064 1.92-3.524 2.116-.353.05-1.863.05-2.97.05V4.576 4.38c0-.295 0-.295.301-.295.403 0 .806.049 1.209.049.604.049 1.208.049 1.812.197 2.669.54 4.129 2.559 4.33 4.822.151 1.575-.252 2.904-1.158 4.085zM12.537 15.404H9.92c-.302 0-.654 0-.956-.05-2.92-.492-4.633-2.706-4.834-5.02-.1-1.574.302-2.952 1.36-4.133 1.006-1.132 2.315-1.723 3.876-1.87.655-.05 1.36-.05 2.014-.148 1.158-.147 2.014-.738 2.468-1.771.251-.542.402-1.182.553-1.723.05-.148 0-.197-.15-.197H9.617a9.17 9.17 0 00-2.972.492c-2.416.788-4.28 2.166-5.488 4.43C.604 6.495.202 7.627.051 8.808c-.101.886-.101 1.821.1 2.707.453 2.116 1.46 3.937 3.122 5.364 1.813 1.526 3.927 2.264 6.294 2.362.956.05 1.913.05 2.87.05h.1c1.058 0 1.964-.886 1.964-1.92 0-1.132-.856-1.968-1.964-1.968z" fill="#7D7D7D"/><path d="M33.029 7.086c0-.688-.1-1.377-.252-2.066-.504-2.018-1.662-3.495-3.575-4.331-.856-.394-1.762-.541-2.719-.59h-3.172a6.43 6.43 0 00-2.719.59c-1.913.886-3.121 2.362-3.575 4.33-.15.69-.251 1.379-.251 2.067v11.91c0 .098.05.197.15.197H20.693c.102 0 .152-.05.152-.148V6.447c0-1.477 1.259-2.707 2.77-2.707h2.466c.705 0 1.36.246 1.813.689.05 0 .05.05.1.05l.152.147c.05.05.05.098.1.147.353.443.605 1.034.605 1.674v12.598c0 .099.05.197.15.197h3.777c.151 0 .151-.05.151-.197v-.148c.1-3.936.1-7.873.1-11.81z" fill="#7D7D7D"/><path d="M66.612 7.136a5.387 5.387 0 00-1.662-.886c-2.618-.935-5.035-.59-7.15 1.132-1.863 1.525-2.618 3.543-2.366 5.905.201 2.067 1.158 3.691 2.87 4.872 1.56 1.083 3.273 1.428 5.135 1.181 1.763-.245 3.273-.984 4.482-2.263.201-.246.201-.197 0-.443-.806-.984-2.266-1.378-3.475-.984-.201.049-.402.147-.654.196-1.561.493-2.87.099-4.028-1.033-.05-.05-.151-.148-.151-.295.05 0 .1 0 .1-.05 2.971-.688 5.992-1.328 8.963-2.017.302-.05.302-.05.302-.394 0-.541-.05-1.033-.201-1.575-.302-1.328-.957-2.51-2.165-3.346zm-1.36 4.035c-1.208.296-2.366.542-3.575.837-.856.197-1.762.394-2.618.59-.05 0-.1.05-.151 0-.05-.344 0-.64.1-.984.303-1.181 1.008-2.067 2.216-2.411.655-.197 1.41-.246 2.064-.099 1.058.197 1.712.886 2.065 1.87.15.148.05.148-.101.197zM114.998 12.303c0-.64 0-1.28-.051-1.92-.151-1.82-1.057-3.198-2.769-4.035-1.259-.64-2.669-.738-4.028-.492-2.417.443-4.179 2.313-4.229 4.725a51.947 51.947 0 000 3.986v4.232c0 .246 0 .246.251.246h2.87c.403 0 .353.05.353-.344v-6.94c0-.491.05-.983.201-1.475.202-.64.604-1.083 1.309-1.23.252-.05.504-.05.756-.05.805.05 1.309.492 1.51 1.23.151.492.201.935.201 1.427v6.989c0 .393-.05.344.353.344h2.92c.302 0 .302.05.302-.295v-.099c.051-2.017.051-4.183.051-6.299zM78.946 12.55c-.403-.296-.806-.542-1.209-.788-.503-.246-1.057-.492-1.56-.738l-.907-.443a1.568 1.568 0 01-.554-.443c-.251-.345-.15-.787.202-.984.252-.148.503-.197.755-.148.252.05.453.148.655.246.503.295 1.057.541 1.56.788.554.246 1.159.344 1.763.196.554-.147.503-.049.403-.59v-.099c-.353-1.476-1.159-2.51-2.619-3.05-1.208-.444-2.467-.542-3.726-.198-1.258.296-2.165 1.034-2.568 2.264-.2.59-.2 1.23-.1 1.87.1.788.503 1.329 1.158 1.821.201.148.453.295.705.394.654.295 1.309.64 1.964.935.453.197.855.443 1.258.738.353.246.453.59.353.984-.101.443-.353.739-.806.837-.604.148-1.158.05-1.611-.295-.252-.148-.453-.345-.705-.443-.856-.542-2.115-.345-2.82.393-.201.197-.251.394-.15.64.251.541.553.985 1.006 1.378 1.158.935 2.468 1.476 3.978 1.476 1.108 0 2.115-.295 3.071-.738.605-.295 1.058-.738 1.41-1.328a3.77 3.77 0 00.453-2.313c-.15-1.034-.554-1.821-1.36-2.363zM86.297 7.53V6.3c0-.197 0-.247-.251-.247h-3.072c-.251 0-.251 0-.251.246V18.8c0 .295 0 .295.302.295h2.87c.403 0 .352.049.352-.394.05-3.74.05-7.431.05-11.171zM84.485 0c-1.259.05-2.216.984-2.216 2.165 0 1.23 1.007 2.166 2.216 2.166 1.259 0 2.266-.984 2.266-2.166C86.8.985 85.744-.049 84.485 0zM101.756 15.748v-2.067-.64c0-.443-.05-.836-.05-1.28a2.84 2.84 0 00-.101-.639c-.302-1.87-1.208-3.297-2.669-4.232-.503-.295-1.007-.59-1.61-.788-.303-.098-.605-.196-.907-.246-.906-.197-1.863-.147-2.82 0-.604.099-1.158.246-1.661.492-.151.099-.353.148-.504.247a5.914 5.914 0 00-1.661 1.476c-1.007 1.329-1.46 2.756-1.46 4.281 0 .492.05 1.034.15 1.526.101.64.303 1.23.554 1.772.403.787.907 1.476 1.612 2.017.704.542 1.51.935 2.517 1.23.302.1.655.148.957.198.252.049.503.049.805.049 1.46 0 2.72-.542 3.374-1.329v.886c0 .147 0 .295-.05.443-.101.59-.353 1.082-.705 1.476a5.297 5.297 0 01-.605.492 3.94 3.94 0 01-.805.345l-.604.147c-.403.099-.806.099-1.209.099-.201 0-.403 0-.604-.05-.403-.049-.856-.098-1.259-.147-.403-.05-.805-.148-1.258-.197h-.152c-.05 0-.05.05-.1.148-.101.295-.151.59-.252.935-.1.443-.252.836-.353 1.28-.05.147-.1.344-.15.491v.099c0 .098.05.148.15.148.05 0 .05 0 .101.049.806.246 1.561.443 2.367.541 1.309.148 2.668.148 3.977-.148 1.007-.197 1.964-.541 2.82-1.18.352-.296.655-.591.906-.887.806-.935 1.209-2.116 1.309-3.395v-.05c-.05-1.23-.1-2.41-.05-3.592zm-6.697.05c-.352 0-.654-.05-.956-.1-1.007-.245-1.762-.885-2.065-1.918a5.875 5.875 0 01-.201-1.575c0-.197.05-.345.05-.542.05-.196.05-.393.151-.54.353-1.133 1.31-1.92 2.468-2.019H95.21c.202 0 .403.05.605.099h.05c.201.049.353.147.554.197 0 0 .05 0 .05.049l.453.295.05.05c.152.098.303.245.404.393 0 0 0 .05.05.05.1.147.252.294.302.491v.05c.1.196.151.344.252.54.05.198.1.395.15.64v.296c0 .787 0 1.526.051 2.313-.654.738-1.813 1.23-3.122 1.23z" fill="#464646"/></g><defs><clipPath id="nclip0"><path fill="#fff" d="M0 0h115v25H0z"/></clipPath></defs></svg><svg viewBox="0 0 26 30" fill="none" id="money" xmlns="http://www.w3.org/2000/svg"><path fill-rule="evenodd" clip-rule="evenodd" d="M21.924 29.596H3.674C1.648 29.596 0 27.976 0 25.985V3.612C0 1.62 1.648 0 3.674 0h18.25c2.026 0 3.675 1.62 3.675 3.612v22.373c0 1.991-1.649 3.611-3.675 3.611zM3.673 1.599c-1.144 0-2.075.903-2.075 2.013v3.684h22.4V3.612c0-1.109-.931-2.013-2.075-2.013H3.673zm20.325 7.697v16.689c0 1.11-.93 2.012-2.075 2.012H3.673c-1.144 0-2.075-.903-2.075-2.012V9.295h22.4zm-5.982 8.006h2.229v6.46h-2.23v-6.46zM7.588 13.06H5.36v2.229h2.23v-2.229zm2.006 0h2.23v2.229h-2.23v-2.229zm6.408 0h-2.229v2.229h2.23v-2.229zM5.36 17.297h2.23v2.229h-2.23v-2.23zm6.465 0h-2.23v2.229h2.23v-2.23zm1.95 0h2.228v2.229h-2.229v-2.23zm6.47-4.236h-2.228v2.229h2.229v-2.229zM5.36 21.533h2.23v2.229h-2.23v-2.229zm6.465 0h-2.23v2.23h2.23v-2.23zm1.95 0h2.228v2.23h-2.229v-2.23z" fill="#242627"/></svg><svg fill="none" viewBox="0 0 36 29" id="peoples" xmlns="http://www.w3.org/2000/svg"><path d="M7.455 19.54a6.076 6.076 0 01-.387-.225 7.567 7.567 0 00-4.46 6.904v1.677a.879.879 0 11-1.758 0V26.22a9.312 9.312 0 014.77-8.167 6.387 6.387 0 01.578-8.872 6.372 6.372 0 014.283-1.65M7.455 19.54l3.026-11.86M7.455 19.54a10.63 10.63 0 00-.29 2.523v5.834a.879.879 0 101.757 0v-5.835 0a8.826 8.826 0 015.179-8.05 7.14 7.14 0 007.618.098 8.86 8.86 0 012.314 1.698h.001a8.756 8.756 0 012.56 6.253v5.836a.88.88 0 101.756 0v-5.835c0-.785-.083-1.568-.249-2.336.28-.127.55-.276.808-.444a7.566 7.566 0 014.484 6.937v1.678a.88.88 0 101.757 0V26.22M7.455 19.54l27.695 6.68M10.48 7.53v.15m0-.15h0v.15m0-.15h.33m-.33.15h.477m-.148-.15l-.002.15h.15m-.148-.15C10.9 3.633 14.084.5 18 .5c3.916 0 7.1 3.133 7.19 7.03m-14.38 0h.148v.15m0 0l14.233-.15m0 0h-.148v.15h.15l-.002-.15zm0 0h.329m-.33 0l8.353 20.367a.73.73 0 101.457 0v-1.678h.15M25.52 7.53v.15-.15h0zm0 0a6.375 6.375 0 014.283 1.65 6.386 6.386 0 01.577 8.872 9.31 9.31 0 014.77 8.167s0 0 0 0m-7.223-6.58a5.85 5.85 0 00.967-.528l-4.754-3.408a8.906 8.906 0 012.603 6.36v5.834a.73.73 0 101.457 0v-5.835c0-.808-.089-1.613-.267-2.4m-.006-.023l.003.01a.098.098 0 01.003.012m-.006-.022l.01.021m-.01-.02l.148-.03-.002-.004m-.14.055h.003m-.003 0h.003m0 0h0m0 0h0m.137-.055h0a.215.215 0 01.008.027l-.145.027m.137-.054v-.002s0 0 0 0v.002zM10.933 9.289a7.179 7.179 0 001.725 3.495 10.563 10.563 0 00-4.612 5.056 4.65 4.65 0 01-2.17-3.917v-.024a4.632 4.632 0 014.634-4.63h.001c.14 0 .281.007.422.02zm14.557-.02h0a4.627 4.627 0 014.62 4.635 4.632 4.632 0 01-2.527 4.12 10.375 10.375 0 00-2.273-3.458 10.81 10.81 0 00-2.1-1.647 7.16 7.16 0 001.858-3.63c.14-.014.281-.02.422-.02zm-2.045-.752a5.426 5.426 0 01-2.07 3.68.864.864 0 00-.53.362 5.423 5.423 0 01-8.27-4.041c.002-.041.002-.082 0-.123v-.452a5.439 5.439 0 015.435-5.441 5.439 5.439 0 015.436 5.44v.453c-.003.04-.003.082 0 .122z" fill="#000" stroke="#000" stroke-width=".3"/></svg><svg viewBox="0 0 30 30" id="safe" xmlns="http://www.w3.org/2000/svg"><path fill-rule="evenodd" clip-rule="evenodd" d="M4.395 0h21.21A4.4 4.4 0 0130 4.395v19.453a4.4 4.4 0 01-4.395 4.394V30H22.09v-1.758H7.91V30H4.395v-1.758A4.4 4.4 0 010 23.848V4.395A4.4 4.4 0 014.395 0zm-.88 24.727h22.97V3.516H3.514v21.21zM5.274 5.273V22.97h19.454V5.273H5.273zm4.747 15H8.262V7.97h1.758v12.304zm8.261-1.464a4.693 4.693 0 01-4.687-4.688 4.693 4.693 0 014.687-4.687 4.693 4.693 0 014.688 4.687 4.693 4.693 0 01-4.688 4.688zm0-7.618a2.933 2.933 0 00-2.93 2.93 2.933 2.933 0 002.93 2.93 2.933 2.933 0 002.93-2.93 2.933 2.933 0 00-2.93-2.93zm0 4.102a1.173 1.173 0 01-1.172-1.172c0-.646.526-1.172 1.172-1.172.646 0 1.172.526 1.172 1.172 0 .646-.526 1.172-1.172 1.172z"/></svg><svg viewBox="0 0 54 69" id="shield" xmlns="http://www.w3.org/2000/svg"><path d="M53.444 9.262c-.536-.526-1.237-.526-1.613-.526l-.738.008-.356-.004C43.814 8.586 36.478 5.939 28.935.872l-.267-.18C28.1.305 27.652 0 27.003 0c-.648 0-1.087.3-1.644.681l-.3.204C17.388 6.03 9.935 8.676 2.906 8.745l-.401.001c-.817.002-1.464.004-2 .543-.528.53-.514 1.172-.5 1.794.002.14.006.303.006.49v30.623c0 1.762.089 2.708.934 4.362C6.083 56.59 14.577 64.142 26.188 69h1.078c11.865-4.967 20.482-12.397 25.61-22.087.791-1.498 1.124-2.41 1.124-4.181V11.399c.002-.92.003-1.586-.556-2.137zm-2.19 33.471c0 1.226-.173 1.729-.814 2.942-4.749 8.973-12.725 15.909-23.712 20.622C16.007 61.689 8.159 54.644 3.4 45.35c-.612-1.196-.643-1.743-.643-3.154V11.573v-.135l.177-.001c7.582-.074 15.547-2.877 23.676-8.33l.32-.217.076-.053.097.066.281.19c7.99 5.366 15.826 8.17 23.29 8.338.15.003.29.004.419.004l.162-.002v31.3h-.001z"/></svg><svg viewBox="0 0 38 38" id="society" xmlns="http://www.w3.org/2000/svg"><path d="M7.173 8.513c2.324 0 4.208-1.906 4.208-4.257C11.38 1.906 9.497 0 7.173 0 4.849 0 2.965 1.906 2.965 4.256c0 2.351 1.884 4.257 4.208 4.257zM30.83 0c2.323 0 4.207 1.905 4.207 4.256 0 2.352-1.883 4.256-4.208 4.256-2.324 0-4.208-1.905-4.208-4.256C26.621 1.906 28.505 0 30.83 0z"/><path d="M33.986 8.067a4.587 4.587 0 01-3.158 1.265 4.586 4.586 0 01-3.157-1.265 5.434 5.434 0 00-3.77 3.652A26.77 26.77 0 0019 11.273c-1.705 0-3.35.156-4.902.446a5.434 5.434 0 00-3.768-3.652A4.586 4.586 0 017.173 9.33a4.586 4.586 0 01-3.158-1.264A5.445 5.445 0 000 13.329v4.418l.011.068.301.096c.94.296 1.833.522 2.688.7a6.369 6.369 0 00-.61 2.682c0 4.01 3.93 7.477 9.587 9.076a5.449 5.449 0 00-.325 1.854v4.418l.012.069.3.096C14.8 37.7 17.263 38 19.29 38c3.96 0 6.255-1.142 6.396-1.214l.282-.145h.03v-4.418c0-.619-.104-1.214-.293-1.767 5.828-1.558 9.906-5.078 9.906-9.163 0-.885-.193-1.743-.552-2.56 1.627-.34 2.543-.796 2.63-.841l.282-.145H38V13.33a5.442 5.442 0 00-4.014-5.262zm.476 13.226c0 3.619-3.81 6.736-9.252 8.109a5.419 5.419 0 00-3.227-2.442 4.589 4.589 0 01-3.158 1.265 4.587 4.587 0 01-3.157-1.265 5.414 5.414 0 00-3.18 2.363c-5.28-1.411-8.95-4.48-8.95-8.031 0-.857.218-1.685.617-2.47 1.27.2 2.436.283 3.482.283 3.96 0 6.255-1.141 6.396-1.214l.282-.145.03.001V13.33c0-.162-.008-.322-.022-.48A26.073 26.073 0 0119 12.433c1.63 0 3.2.146 4.677.416a5.64 5.64 0 00-.02.48v4.417l.01.069.302.095c2.834.895 5.297 1.194 7.324 1.194.973 0 1.843-.068 2.608-.174.363.754.561 1.545.561 2.363z"/><path d="M18.825 27.406c2.323 0 4.207-1.905 4.207-4.256 0-2.35-1.884-4.255-4.207-4.255-2.324 0-4.208 1.905-4.208 4.255 0 2.35 1.884 4.256 4.207 4.256z"/></svg><svg viewBox="0 0 66 62" id="stairs" xmlns="http://www.w3.org/2000/svg"><path d="M65.629 11.477L61.97 6.81l3.771-4.907A1.12 1.12 0 0065.834.65C65.607.251 65.155 0 64.663 0H50.542c-1.443 0-2.618 1.14-2.618 2.539v.493c0 .017-.005.031-.005.047v18.468h-4.074c-3.538 0-6.414 2.785-6.414 6.208v5.382a7.717 7.717 0 00-5.293-2.084c-4.201 0-7.619 3.315-7.619 7.388v4.751a7.572 7.572 0 00-5.012-1.885c-4.123 0-7.476 3.252-7.476 7.25v3.03a6.939 6.939 0 00-4.2-1.407h-.99C3.067 50.18 0 53.15 0 56.804v3.988C0 61.46.59 62 1.32 62H13.35l.018-.002h12.298c.036 0 .07-.007.104-.01.024.002.046.007.07.007h12.6c.045 0 .09-.008.133-.012.058.007.116.016.177.016h23.07c.729 0 1.32-.54 1.32-1.208V27.755c0-3.422-2.877-6.208-6.413-6.208H50.56v-8.022H64.68c.73 0 1.32-.54 1.32-1.208 0-.326-.14-.622-.371-.84zM2.639 56.805a4.21 4.21 0 014.201-4.209h.992c2.315 0 4.199 1.888 4.199 4.209v2.78H2.638v-2.78h.001zm21.708 2.779H14.67V48.558a4.84 4.84 0 014.837-4.835 4.841 4.841 0 014.839 4.833v11.028zm12.774-.004h-9.96V38.441a4.981 4.981 0 019.96 0v21.14zM60.5 27.756v31.828h-20.43V27.756c0-2.09 1.693-3.792 3.775-3.792h5.053c.11.026.222.046.34.046.12 0 .232-.019.341-.046h7.148c2.08 0 3.773 1.701 3.773 3.792zM50.566 11.11V2.54c0-.071.027-.116.001-.123h11.556l-2.59 3.37c-.486.636-.677 1.223-.023 2.03l2.585 3.295h-11.53z"/></svg><svg viewBox="0 0 36 34" fill="none" id="sun" xmlns="http://www.w3.org/2000/svg"><path d="M34.27 17.811c-.64-.492-1.422-.83-2.133-1.206-.331-.172-1.08-.742-1.302-.939-.71-.627-1.134-1.29-1.977-1.776 0 0 .186-.132.369-.21.625-.272 1.328-.274 1.936-.56-.774-1.164-2.138-1.004-3.016-1.84.522.098 1.209.038 1.737-.012.974-.092 1.125-.438 1.582-1.125.132-.201.315-.398.473-.507.726-.485 2.594-.25 3.412-.25-.724-.39-1.853-1.116-2.686-1.193-3.221-.395-4.455.73-6.587-.344-.233-.091 1.035-.86 1.803-.888-.154-.104-1.11-.438-1.463-.431-.84.02-1.252.313-1.893.777 0-.616.039-1.064.641-1.453.368-.237 1.101-.409 1.376-.61.276-.199.558-.745.658-1.053.102-.307.085-1.09.085-1.09-.42.52-.737.917-1.425 1.05 0 0-2.745.524-3.404.757-.658.232-1.376.946-1.376.946s-.1-.125-.106-.431c-.008-.306 1.446-2.969 1.253-2.846-.19.123-1.078.386-1.607.57-.527.184-1.436.375-2.512.861-1.08.484-1.7 1.546-1.8 1.4-.1-.148-.346-.444-.39-.917-.047-.468.396-1.246.574-1.669.375-.906.537-2.002-.138-2.822-.246.19-2.622 2.697-3.107 3.538-.486.842-1.178 2.707-1.178 2.707l-.81 2.486s-.244-.214-.392-.437c-.145-.224-.07-1.1-.07-1.1.198-1.32.225-2.921-.977-3.84-.351-.272-.817-.239-.817-.239s.317.442.29 1.007c-.026.56-.183 1.145-.183 1.145l-.613 2.49c-.519 2.012-.312 3.174-.383 3.167-.932-.097-1.646-.929-1.835-1.792-.092-.425-.092-1.871-.092-1.871-1.04 1.544-1.618 2.542-1.3 4.417.222 1.295.944 2.655 1.598 3.791.337.586.58 1.635.58 1.635-.393-.397-.762-.738-1.374-.738-.896 0-2.16.788-2.939.317-.064-.039-.29-.132-.29-.132s.119.266.184.372c.836 1.352 1.893 1.112 3.162 1.724.686.323 1.074.563 1.556 1.191-.348-.176-1.274-.047-1.623.078-.576.206-1.058.651-1.686.86-.997.336-2.411.203-3.371-.249C.46 20.422 0 20.141 0 20.141s.078.241.185.44c.105.195.843 1.231 1.079 1.469.851.854 1.747 1.206 2.895 1.347 1.954.088 3.65-.296 5.522.057.632.122 1.369.544 1.369.544-2 .596-1.245 1.723-3.715 2.186 1.688.763 2.997.497 4.611 0 1.119-.343 2.344-.358 2.344-.358-.73.34-1.677.977-2.105 1.657-1.046 1.653-2.244 2.561-4.19 2.793.73 1.15 3.007.647 4.004.358 1.174-.335 2.282-.911 3.147-1.786.172-.171.685-.703.87-.902.184-.198.476-.463.763-.661.292-.2.816-.427 1.094-.489.274-.07.937.024.937.024l-.055.038c-.054.043-.223.347-.356.545-.432.653-.609 1.538-.658 2.306-.028.41-.146 1.1-.146 1.1 1.041-.988 1.722-2.823 3.032-3.484.208-.105.46-.092.46-.092-.067 1.3-.896 2.406-.896 3.709 0 2.654 2.516 3.14 2.502 3.048-.096-.717-.065-2.028.106-2.73.313-1.245.974-2.487 1.358-3.748.186-.619.16-1.434.08-2.068.352-.047 1.26 1.643 1.21 1.855 0-.456.284-1.27.33-1.817.046-.567-.074-1.293-.238-1.839a3.375 3.375 0 011.608 1.165c.196.253.501.687.67.967.39.628.714 1.534 1.345 1.935.305.191.85.111 1.2.068-.312-.287-.586-.478-.765-.875-.346-.762-.42-2.04-.42-2.903 0-1.395-.305-2.798-1.016-4.001.36.043.69.136.987.357.155.117.54.427.752.305-.39-.36-.263-1.055-.462-1.535-.068-.16-.29-.661-.29-.661.287.045.583.275.844.395.595.276 1.41.353 2.053.383 1.062.06 2.142.048 3.109.533.106.051.567.435.567.435 0-.285.002-.578-.095-.845-.247-.7-.802-1.123-1.357-1.555z" fill="#fff"/><path d="M18.034 7.53c-4.843 0-8.784 3.956-8.784 8.82 0 4.863 3.94 8.82 8.784 8.82 4.843 0 8.784-3.957 8.784-8.82 0-4.864-3.94-8.82-8.784-8.82z" fill="#E9862A"/><path d="M20.878 23.596c.015-.01.034-.019.047-.026.011-.092-.026-.063.06-.16l.727-.374c.177-.242.247-.604.306-.893.007-.064.06-.34.029-.405-.02 0-.036 0-.055.002-.06.105-.065.132-.065.262l-.015.008c-.013-.178-.088-.099-.009-.313-.072.029-.412.142-.44.201 0 .088-.11.262-.207.213-.033 0-.033 0-.505.107-.023-.031-.03-.065-.074-.065-.242.065-.487.136-.734.182v.017c.068.027.14.05.21.077-.009.058-.016.117-.022.177-.223.047-.39-.052-.563-.189-.443.063-.89.098-1.34.12 0 .185.06 1.524-.006 1.756a7.87 7.87 0 002.966-.657c.084-.063.165-.13.244-.204-.114-.052-.355.263-.554.164zm-2.717-1.058l-.63-.009a10.973 10.973 0 01-3.655-.944c-.064.65.126 1.357.562 1.84a7.809 7.809 0 003.748.869c-.087-.223-.025-1.57-.025-1.756zm6.758-2.28a7.836 7.836 0 00.886-2.406c-.206.522-.479.985-.81 1.438-.01.337-.025.645-.076.968zm-.009-.86a9.66 9.66 0 01-1.557 1.459c.019.002.019.002.064-.024l.011.024c-.033.024-.033.024-.15.08-.004-.006-.004-.006.016-.037-.372.244-.756.47-1.148.678-.022.092-.027.16.043.222-.133.122-.164.64-.224.85-.022.064-.117.251-.117.314.226-.21.47-.512.748-.652.16.091.299-.153.373-.295.073-.06.25-.17.259-.26.074-.048.152-.098.23-.146 0 .055-.103.128-.06.186.382 0 .562-.5.706-.761.007.05 0 .115.07.068.016.025-.03.082 0 .112-.078.229-.52.59-.69.783-.6.552-1.199.946-1.904 1.368-.046.056-.131.12-.204.183a7.992 7.992 0 003.428-3.091c.098-.344.116-.711.12-1.066-.005 0-.008.002-.014.005zm-1.603 1.688c.01-.016.024-.028.039-.043.002.02-.026.037-.04.043zm.177-.096c-.024-.035-.024-.035-.044-.046.067-.002.067-.002.127.003a.598.598 0 00-.083.043zm.86-.52c-.165.144-.235.363-.428.488-.022-.042-.046-.083-.068-.123-.078-.016-.184.061-.255.096.084-.125.173-.248.259-.372.078-.041.62-.372.678-.355-.012.015-.012.015-.012.046.041.028.081.026.13.021a.718.718 0 01-.304.2zm-12.822.376l.053.081c-.02-.026-.035-.053-.053-.08zm12.562-9.611c-.727-.281-1.497-.343-2.268-.374.033.026.07.051.106.08-.074 0-.143-.08-.237-.08 0 .08.083.169.123.237-.063-.015-.126-.036-.19-.036a.06.06 0 00-.018.029c.019.029.019.029.065.067-.018.028-.022.035-.022.069a.685.685 0 00-.072-.009c-.046-.031-.423-.399-.43-.176.07.138.07.138.072.167-.027 0-.037 0-.058.02-.064-.1-.128-.197-.193-.294h-.048c-.01.011-.01.011-.017.177-.027.025-.056.052-.085.075a1.557 1.557 0 01-.413-.295c-.6.033-1.198.125-1.794.212l-.026-.045.009-.014a18.247 18.247 0 011.809-.227c-.041-.122-.099-.22-.163-.333.079-.118.617-.16.756-.254 0-.025 0-.05.006-.073.05.063.1.124.15.19.013.057.017.114.062.155-.008.033-.032.033-.055.056 0 .012 0 .022.002.035.02.015.02.015.56.19.634.036 1.25.079 1.87.217.183.051.332.1.396.118a7.944 7.944 0 00-2.506-1.921.992.992 0 00-.278.045c.024.012.045.024.066.033-.066.004-.247-.04-.286.042-.046-.008-.09.021-.134.038.011.014.025.027.038.042-.019 0-.019 0-1.391-.58-.494-.082-.991-.164-1.483-.241.042-.002.087-.002.131-.002l.001-.17c-.035-.002-.07-.002-.105-.002-1.27 0-2.47.304-3.535.84.956.032 1.806.544 2.6 1.037.09-.004.172-.068.263-.039-.022.01-.04.018-.06.03v.043c.052.031.122.02.178.035-.169.149.105.355.187.302-.003-.061.011-.104-.051-.12.037-.085.053-.088.146-.125-.002-.019-.004-.033-.004-.05a1.794 1.794 0 01-.077-.041l.035-.067c.044-.001.077.003.108-.03.02.046.02.046.02.062l-.05.034c-.007.107.012.092.063.175-.017.015-.012.046-.003.063.025 0 .051 0 .077.002.011.018.02.03.041.04-.006 0-.01.003-.012.005-.042-.015-.068-.034-.114-.022a.572.572 0 01-.006.052c-.035-.001-.048-.004-.072.018 0 .01.001.018.005.027-.038.007-.074.016-.109.021l.255.216c-.02.013-.04.024-.059.034-.091-.077-.338-.33-.423-.33 0 .032.007.042.022.074-.068.122-.227.05-.227.152.023.017.047.033.073.05-.026.01-.052.016-.052.05.477.095.477.095.492.106a.237.237 0 00-.029.05c-.212-.036-.356-.095-.555-.02l.015-.081c-.068-.01-.12 0-.182-.005-.008.009-.008.009-.017.046-.046-.017-.083-.03-.13-.03-.033.06.04.102.085.13-.007.018-.012.036-.02.055-.065-.034-.07-.07-.105-.124h-.045c-.006.009-.015.017-.02.03-.11-.055-.203-.145-.317-.071-.029-.137-.076-.03-.169-.03v-.038a.1.1 0 00-.024-.017c-.065.022-.065.022-.11.027.004-.034.004-.047-.03-.057-.007-.044-.007-.044-.017-.066-.15-.015-.3-.028-.447-.04-.01.019-.01.019-.028.033a.19.19 0 00-.027-.039c-1.121-.064-2.521-.167-3.549.393a7.923 7.923 0 00-1.737 6.766c.068.178.147.352.24.532 0-.024-.053-.21-.053-.238.348.786.668 1.588.973 2.389l.021.1a4.163 4.163 0 01-.183-.45c-.274-.492-.483-1-.678-1.529a9.534 9.534 0 01-.238-.448c.233.918.63 1.77 1.154 2.53l-.026-.044c.046-.013.031-.05.054-.056.033.064.228.276.118.308a8.027 8.027 0 002.595 2.28c-.392-.502-.463-1.138-.463-1.779a10.334 10.334 0 01-1.618-1.04c-.018-.002-.037-.009-.053-.01-.133-.212-.493-.611-.438-.866.116-.084.074-.084.05-.237.168.18.363.364.498.566.04.168.076.336.116.505l-.107.015a9.43 9.43 0 001.557.984c.037-.67.154-1.31.288-1.973a1.283 1.283 0 00-.115-.007c-.095.109-.207.09-.33.048l-.03-.309c.233.032.233.032.277.03.16-.182.16-.137.133-.347.026-.032.049-.063.076-.091.033.053.065.108.101.16h.014l.07-.254c0-.273-.124-.242-.353-.316l-.14-.233c-.026-.211-.023-.324-.138-.488-.014-.21-.026-.418-.037-.624.037-.055.077-.108.118-.163-.006-.194-.015-.245.097-.403.159.148.414.056.592.17.134.385.556.647.605 1.062-.098.068-.098.068-.19.143-.082.234-.14.247.023.418-.044.052-.14.119-.14.19.087.051.166.326.21.425-.165 0-.09-.09-.224.077-.076-.047-.284-.212-.367-.212-.052.22-.095.274.023.464-.055.031-.109.064-.162.098-.159.716-.316 1.442-.333 2.175 1.364.66 2.783.942 4.286.96l-.006-2.565a.2.2 0 00-.04.005c-.026.044-.049.09-.073.136a1.33 1.33 0 01-.117.014c-.03-.155-.056-.306-.086-.458a.352.352 0 00.03-.15c.027.002.054.008.084.01.063.156.081.134.255.161-.024.025-.053.052-.079.08 0 .07.076.12.14.12.007.082.065.32.207.178 0-.072 0-.144.002-.213.133-.08.176-.238.244-.378.063-.06.132-.12.198-.178.053.015.053.015.125.041.006.115-.113.35-.07.42.039.004.075.004.117.01.085.175.057.197.242.205-.015.126-.213.237-.304.307-.04.214.092.272.064.47-.032-.01-.139-.225-.213-.146-.027.12-.116.19-.25.169.007-.306-.054-.316-.28-.549-.021-.052-.072-.216-.123-.229 0 .848 0 1.694.003 2.541.42-.02.836-.06 1.253-.12-.206-.157-.41-.32-.614-.48.251.015.387.116.603.24.06.006.244.015.283.054a.064.064 0 000 .07c.04.002.04.002.079-.009a.71.71 0 00.008.067c.272-.067.55-.13.82-.21a.419.419 0 00-.048-.067c.023-.039.047-.074.071-.108h.029c.292.156.62-.263.765-.477.09-.053.172.052.242.106a.48.48 0 00-.177.239c.275-.121.275-.121.523-.242a11.46 11.46 0 00-.105-1.41c-.008 0-.017 0-.025.002-.022-.08-.022-.067-.114-.073-.011-.018-.016-.038-.022-.055.078-.022.023-.248.022-.29a.184.184 0 01.055-.022c0-.077-.071-.623-.158-.733a4.742 4.742 0 00-.03.242l-.052-.067c.023-.056.044-.157.084-.196l-.146-.576h-.01c-.007.227-.154.354-.121.578-.085.138-.173.274-.256.411l-.238.15c-.03-.023-.04-.025-.076-.025-.03.052-.03.052-.065.135-.09.049-.255.1-.294.195-.01-.014-.018-.031-.029-.044-.09 0-.178.04-.263.065-.098-.065-.24-.191-.355-.21a4.488 4.488 0 01-.441.188l-.008.048c-.065-.006-.129-.01-.191-.014-.06-.129-.058-.198-.19-.207.028-.1.114-.29.066-.394l-.27-.12c-.025-.03-.1-.163-.13-.072.026.051.134.14.14.167-.172.16-.238.275-.337.49-.147.076-.097.078-.097.26h-.066c-.018-.188-.018-.188-.028-.203-.037-.005-.08 0-.108-.028.003-.012.003-.012.118-.116v-.022c-.062-.049-.193-.05-.272-.06-.02-.044-.037-.086-.056-.126l-.037-.007c.035-.008.31-.015.328-.024 0-.132-.175-.223-.292-.202-.405.221-.647-.268-1.018-.297-.061-.038-.118-.077-.181-.116-.024-.105-.024-.105-.024-.145.109.003.109.003.124-.009 0-.077-.038-.147-.05-.224.096-.102.17-.124.074-.235-.141-.087-.286-.175-.424-.268l.001-.121c-.03-.031-.06-.059-.089-.086.034-.188.102-.131.31-.16.157-.053.283-.188.448-.212.01-.018.01-.018.034-.34.24-.055.213-.016.271-.253.199-.014.256.046.29-.149.041-.02.09-.055.136-.055.055.061.11.125.166.19.084.353.081.267.463.382l.246.207c.134-.023.268-.044.4-.064l.357.107c.214 0 .516-.301.657-.456-.004-.047-.053-.12-.046-.148a1.85 1.85 0 01.158-.032c.034-.04.404-.415.404-.446-.162-.168-.12-.175-.331-.106-.01-.01-.01-.01-.028-.15.25-.072.074-.323.074-.495.03-.018.03-.018.14-.113h.244c.082.082.16.166.24.252h.284l.071.081h.04c.05-.08.098-.156.149-.23.014.026.014.026.124.42-.161.173-.145.14-.035.351-.083.033-.105.22-.11.302-.192.038-.12.216-.189.383-.134.168-.124.13-.05.33.413 1.337.788 2.721.814 4.134a6.12 6.12 0 01.24-.118c.006.002.006.002-.236.13v.087a8.758 8.758 0 002.765-2.209c0-.027 0-.051.004-.079-.187-1.958-1.085-3.927-2.474-5.321-.156-.12-.316-.24-.475-.358-.114-.264-.304-.396-.525-.594-.078.128 0 .44.157.478-.01.023-.017.045-.025.069-.064-.011-.14.064-.195.096.003.032.006.066.007.098a7.203 7.203 0 00-.214.232c.001.273.004.545.007.817.032.025.081.004.12 0 .02.025.043.048.065.075h.076c.037-.05.063-.122.086-.178.02 0 .042.004.063.004-.003.035-.037.052-.015.088l.167.04c.071.138.144.277.219.418.02.319.102.687-.026.975-.132 0-.15-.035-.18.091-.11-.192-.12-.157.026-.315a1.624 1.624 0 00-.154-.565h-.045c-.055.085-.113.173-.168.26-.02-.021-.036-.041-.055-.06h-.277l-.248-.252c-.276 0-.271-.02-.485.156 0 .117.055.27.069.395-.11.096-.257.064-.388.1-.336.234-.377.13-.768.145-.078.047-.078.047-.099.053-.137-.147-.184-.16-.386-.205-.102.1-.089.2-.089.333-.167-.003-.317-.005-.482-.038-.118.018-.245.115-.356.163l-.08-.088c-.128 0-.143-.04-.235-.132-.102-.037-.18 0-.247-.092-.035 0-.046.006-.078.017-.032-.102-.098-.399-.165-.464-.032 0-.032 0-.233.04-.003-.088-.118-.088-.187-.113-.05-.148-.05-.148-.063-.166-.031-.01-.031-.01-.704-.024-.018.028-.014.074-.014.106-.072.009-.1-.003-.113.068a.148.148 0 00-.074.02c.003.046.01.093.016.142-.03-.002-.06-.003-.09-.007-.072-.167-.104-.135-.289-.15-.074-.097-.152-.192-.227-.29-.087.004-.216-.018-.29.021-.07-.07-.199.08-.258.122 0 .11.017.242-.017.348-.015-.006-.015-.006-.036-.036-.061 0-.192.127-.213.191-.006.131-.011.267-.014.4a.331.331 0 00-.056.005c-.193-.327-.369-.557-.398-.94h.058c.059-.074.04-.166.132-.224.368-.117.387.024.144-.462.016-.156.078-.242-.016-.366.008-.02.016-.041.026-.06.228.095.197-.283.206-.432.143-.045.283-.087.422-.125.122-.085.052-.307.043-.417.08.034.18.09.27.09.122-.13.24-.256.362-.381-.033.181-.031.186-.176.313 0 .07.012.152.044.214.012 0 .027 0 .043.004.024-.037.05-.074.078-.106.02.05.043.101.066.154.014 0 .026 0 .04.003.025-.047.05-.095.073-.142.046-.008.046-.008.126-.008.001.053-.009.11.058.11.034-.048.07-.098.108-.146.01.128.01.128.017.14.13-.005.403-.04.446-.036-.015.027-.024.057 0 .082.049 0 .09 0 .137-.015.43-.73.871-1.441 1.355-2.137.018-.01.059.01.067.026-.118.166-.232.331-.345.499-.139.212-1.084 1.58-.999 1.707.069-.011.117-.073.171-.12.066.079.066.079.206.275.06.008.08-.03.12-.067 0-.053-.02-.088-.043-.136 0-.143.119-.258.226-.332.015.01.038.018.056.027l-.15.573c-.013.013-.151.069-.209.1 0 .072.08.136.148.136.041-.048.21-.286.264-.286-.002.043-.002.092-.002.139.049.048.133.088.133-.011-.013-.007-.025-.015-.034-.018l.011-.144c-.05-.027-.102-.053-.154-.079a.493.493 0 01.08-.312c0 .138.01.128.136.192.028-.018.028-.018.037-.04a1.377 1.377 0 01-.054-.107c.057-.055.142.024.194.056-.026.075-.098.22.043.22.124-.124.029-.29-.028-.4a.033.033 0 01.01-.017c.202-.054.209-.015.236-.213.053-.029.108-.061.163-.093 0-.503.004-1.006.008-1.507h.06c.003.497.005.993.01 1.49.08-.005.175.027.175-.07.032-.014.047-.05.06-.086.007.008.007.008.06.008.033.102.117-.005.187-.005.184.106.033.24-.05.388.095.062.195.055.215-.091.016.022.035.046.056.07h.04c.104-.165.225-.024.36-.135 0-.042-.014-.067-.004-.109a32.32 32.32 0 00-.9-1.498c.007-.012.007-.012.058-.035.322.494.648 1.001.913 1.527.08.07.252.277.386.211.005-.05-.017-.096-.03-.144.108.009.148-.062.225-.133-.008-.075-.043-.1-.085-.163.023-.048.15-.107.196-.136l.05.039c.065-.008.065-.008.196-.04.037-.066.074-.134.113-.198.124.002.246.07.234-.084-.638-.446-1.331-.763-2.066-1.013a.306.306 0 01.023-.062c.739.25 1.417.567 2.07 1.003 0-.03.003-.059.008-.087.108-.02.108-.02.139-.033 0-.017 0-.03.002-.044l-.142-.092a.558.558 0 01.464-.408c.012-.017.012-.042.004-.063-.023-.007-.055-.007-.065-.027l.039-.06c.052 0 .15.096.191.13-.044.045-.07.1-.098.161-.031-.005-.078-.025-.104 0 0 .013.003.026.005.045l.15.1c.04.122.04.122.054.137.075.002.154.004.232.01.005.019-.003.023-.016.038 0 .14.197.376.272.499-.078.05-.078.05-.09.07.033.168-.01.556.279.504l.101.063c0 .018-.004.038-.006.059.187.162.207.258.283.495a9.499 9.499 0 012.502 4.72c.058.385.089.692.098.718.404-.577.701-1.135.892-1.803.042-.336.065-.68.065-1.029a7.93 7.93 0 00-1.863-5.111zM12.872 22.017c.032-.024.068-.01.108-.005.016-.017.016-.017.024-.039a.585.585 0 01.05-.002c.023.018.023.018.094.143-.046.098.016.212.002.316-.182-.166-.321-.258-.406-.49.021.006.021.006.128.077zm8.491-.63c.044-.06.142-.231.21-.252.05.05.075.048.15.054-.119.11-.12.142-.277.178-.076.107-.15.218-.227.328-.116.055-.23.111-.347.168.128-.192.293-.367.491-.477zm-2.283-.994c.008-.17.141-.368.304-.236.02.076 0 .172.03.24.121 0 .236-.091.356-.11.118.11.21.165.198.349-.286.027-.372.056-.32.375h-.017c-.125-.105-.25-.17-.31-.017-.145-.214-.145-.214-.166-.265.032-.177.03-.197-.075-.335zm.159.857c.002-.06.007-.097.042-.146.004.01.004.01-.042.146zm.021-.229c-.018.03-.018.03-.044.05-.058-.17-.058-.17-.061-.209.032.054.07.105.105.16zm-.055.5c0-.05 0-.05.03-.19.05.074.163.19.183.27a.746.746 0 01-.213-.08zm.25.125c-.005-.007-.006-.014-.008-.019.015-.002.015-.002.033.009-.008.004-.018.004-.025.01zm.377.403c-.23-.078-.247-.108-.356-.326.11-.095.22-.033.332.059.005.12.013.146.09.235-.007.027-.04.03-.067.032zm.77-2.075a.415.415 0 01-.092.169l-.055.003c-.093-.07.092-.148.147-.172zm-.186.573c.027.115.053.228.083.345-.113.107-.21.286-.37.274-.033.049-.033.049-.067.084-.003-.045-.002-.045-.013-.075-.038-.013-.159-.024-.162-.033.397-.307.397-.307.408-.325v-.248c-.06-.106-.06-.106-.065-.129.06.033.12.072.186.107zm-.181.055a1.725 1.725 0 00-.013.196c-.139.106-.276.209-.413.317a.237.237 0 00-.084-.071c-.072-.334.016-.315.345-.357.113-.066.113-.066.165-.085zm-.05-.727c0 .099-.167.231-.204.34-.181-.12-.094-.05-.094-.196-.084-.046-.246-.11-.246-.226.311-.141.238-.117.545.082zm-.78.047c.03-.003.062-.007.094-.013.013-.02.007-.048 0-.067.024-.005.05-.01.076-.012.073.122.11.144.233.217 0 .04-.027.068-.024.114.074.046.45.25.406.383-.053.025-.1.052-.15.08-.037-.238-.068-.246-.264-.415-.106.024-.206.068-.308.11-.004-.063-.006-.122-.013-.184a.476.476 0 01-.105-.106c.02-.037.034-.072.056-.107zm-1.194-.61c-.094.003-.188.01-.279.015-.048-.168.268-.02.279-.015zm3.997 1.387l.07-.088c.007 0 .011 0 .015.003a1.203 1.203 0 00-.085.085zm.378-.155c-.107-.018-.094.114-.095.184-.03.001-.056.003-.083.006 0-.048 0-.088-.034-.12.023-.027.023-.027.123-.221a.35.35 0 01.055.014c.017.042.06.097.034.137zm.025-5.13a.84.84 0 00.059.014c-.077.204.011.236-.202.343.005-.039.012-.077.02-.113-.022-.042-.1-.156-.088-.2.107.01.123.017.211-.044zm-.11.449c0 .015 0 .015-.01.019l-.015-.02h.024zm.098 1.03c0-.087 0-.087-.012-.209a.547.547 0 01.036-.001c.137-.244-.012-.46.005-.712.168.125.226.393.25.6-.066 0-.082.176-.098.23-.217.057-.067.07-.107.226-.006 0-.01.002-.014.003-.018-.019-.033-.043-.048-.064h-.04l-.236.24c.05-.17.123-.201.264-.314zm-.33.514c.039.007.039.007.089.033l-.007.145c-.004 0-.008 0-.01.003-.022-.077-.031-.101-.087-.156l.015-.025zm-.05 2.662c0 .007.003.01.005.018h-.022a.07.07 0 01-.015-.011c.02-.009.02-.009.031-.007zm-.116.294h.022a.133.133 0 00-.022.03v-.03zm-.301-3.38c.018.007.018.007.195.195-.024.136-.037.216-.158.298-.06-.204-.111-.293-.037-.492zm-.056-.66c-.004.073-.004.073.006.267-.093.198-.175.211-.006.335-.047.161-.039.157-.192.202 0-.097.02-.202-.097-.195.022-.103.04-.206.06-.306.037-.007.072-.01.108-.014.028-.094.028-.19.064-.284l.057-.006zm-3.796.122c.076-.04.15-.08.23-.12.182.012.36.028.547.028.065-.087.01-.216.072-.32.07.008.07.008.19.04.15.158.124.216.305.088.127.01.395.081.51.042.188-.135.248-.181.475-.208.044.287.007.217.256.167l.079.082c-.012.038-.07.07-.102.094-.085.096-.166.196-.248.295-.07.01-.142.014-.204.045 0 .056.03.1.058.148 0 .136-.473.417-.576.435-.26-.154-.47-.095-.74-.046a12.16 12.16 0 00-.268-.211c-.306-.09-.306-.09-.346-.108-.04-.183-.081-.313-.238-.435v-.016zm-1.531-4.566l-.039.005c.005-.009.005-.009.039-.005zM14.817 11c.054-.035.101-.089.159-.106-.002.095.015.04.04.09-.036.039-.052.039-.046.098.027.008.027.008.061.002-.019.056-.119.103-.173.128a1.016 1.016 0 01-.049-.026l.008-.186zm.27 1.382v.01c-.052.012-.104.03-.155.043-.028-.018-.054-.037-.08-.056.08 0 .158 0 .235.002zm-1.048.062c.07-.007.235.013.235-.078l-.037-.025c0-.006.008-.01.011-.013l.026.005c.017.043.017.043.036.069.009 0 .018.001.03.007a.095.095 0 01.024-.021 5.008 5.008 0 01-.022-.106c.007 0 .015.004.022.007l.01.023c.105.003.14-.006.212.067-.146.175-.135.203-.352.227-.006-.013-.009-.022-.014-.029-.05 0-.07 0-.12.019-.031-.019-.061-.042-.095-.057.001-.035.017-.06.034-.095zm-.101-.561c-.004.007-.008.014-.009.022-.013-.003-.02-.01-.028-.01.01-.006.023-.009.037-.012zm-.268.94c.062-.048.134-.131.217-.095v.015a.332.332 0 01-.217.08zm.096.682c.028 0 .055.002.082.005 0 .107.131-.01.18-.019.03.08.061.157.094.237-.065.114-.176.008-.233-.037-.089.046-.178.188-.238.27-.04.014-.04.014-.257.047a.851.851 0 01.004-.598c.06-.05.122-.099.182-.145.165.043.12.132.186.24zm.076-1.593c-.014.04-.022.076-.03.113-.119.008-.11.011-.208.06-.002-.023-.002-.044-.002-.063.091-.037.147-.087.24-.11zm-.51 1.471c-.03.242-.093.412-.01.635a.236.236 0 00-.047.008c-.12-.242-.06-.255-.102-.516.043-.11.07-.21.093-.325.097-.016.236-.125.302-.125.004.003.01.007.017.015-.023.162-.13.211-.252.308zm-.612.299c-.235 0-.307.576-.329.75a.232.232 0 00-.05.006c-.03.043-.066.11-.116.12.153-.209.163-.425.214-.682.051-.081.202-.289.111-.38.079-.098.159-.19.238-.286.029-.003.058-.004.088-.008 0 .1.02.16-.05.228l.046.298a.494.494 0 00-.084.046c0 .034 0 .068.004.106.013.01.025.02.04.03-.009.086-.049.05-.088.108-.032.107-.084.213-.095.325.016.013.037.022.058.034 0 .251-.096.112.03.363h-.017c-.071-.054-.098-.076-.182-.09.09-.151.09-.3.111-.478.064-.186.176-.316.071-.49zm-.35 1.4h-.013c-.011.05-.033.069-.06.112 0-.051.006-.07.027-.122.046.002.046.002.046.01zm-.23-1.924c.035-.055.148-.198.217-.31h.046c-.046.123-.054.21-.066.343-.031.018-.062.036-.09.056-.035-.04-.057-.073-.106-.09zm.777.76c.002.079.03.172.03.235-.047.046-.137.164-.198.177a.105.105 0 00-.024-.016c0-.079.053-.18.077-.257.068-.01.086-.079.115-.138zm-.202.663c.045-.13.155-.34.289-.386-.035.123-.124.304-.124.424.007.005.016.014.022.02-.04.042-.04.042-.1.086-.028-.05-.058-.096-.087-.144zm.214.064c.065.099.129.198.196.297-.02.043-.135.042-.183.088-.091-.077-.143-.107-.143-.235.032-.042.081-.133.13-.15zm.039-.061c0-.144.164-.34.064-.452-.011-.057-.011-.057-.018-.249.062-.015.062-.015.114-.012.09.182.16.355.287.517.09.181.045.227-.024.422-.069.036-.137.07-.204.108l-.219-.334zm.241-1.449a.999.999 0 00-.06.583c-.01.024-.01.024-.048.077a3.257 3.257 0 01-.16.015c-.009.012-.02.079-.027.079v-.014l-.055-.028v-.04c.028-.013.054-.028.079-.036-.006-.09-.006-.09-.042-.317.067-.082.05-.14.052-.248.118-.07.121-.08.161-.212.095-.063.196-.152.322-.136-.016.033-.018.042-.005.079.057 0 .101-.032.153-.06-.102.182-.17.207-.37.258zm.12-.335a.228.228 0 01.046-.027l.006.021a1.074 1.074 0 00-.053.005zm-.212-.535c.047.036.066.06.122.053l.036-.159c.072.014.144.028.218.04-.104.106-.179.156-.218.297-.04.01-.079.018-.116.03-.042-.226-.042-.226-.042-.26zm-.624.538l.172-.075c.061-.071.129-.25.195-.285 0 .035.002.069.004.104.032.03.055.008.085-.014.023.16 0 .114.196.174.023.03.049.061.071.095.012 0 .079-.018.079.008-.258.054-.203.24-.353.322l-.177.007c-.09.107-.184.212-.274.319l-.066-.044c.016-.236-.034-.373.068-.61zm-.27-.36c.002.022.002.022-.006.062a3.21 3.21 0 00-.216.079c.067-.074.13-.1.222-.14zm-.305.239c.116-.041.232-.082.35-.121.023-.07.04-.231.15-.231-.033.254-.137.754-.431.844-.015.025-.03.054-.062.06-.033-.012-.062-.027-.09-.038a2.612 2.612 0 01-.032-.185c.022-.117.102-.209.115-.33zm-.183 6.162c-.037 0-.064 0-.089.026.052.417.052.417.05.44a3.362 3.362 0 01-.435-.725l-.163-.564c-.004-.22-.005-.432-.008-.647.04-.03.08-.056.12-.082.027.03.032.039.076.043.047-.119.092-.234.14-.35.03.026.04.032.075.038.035-.043.068-.087.102-.128.402.573.402.573.478.673l.113.011c0 .1.026.194.032.291-.01.053-.033.4-.089.432l-.195.347c-.06 0-.12 0-.18.003-.038.037-.024.138-.027.192zm-1.162-3.214h-.031c-.05.09-.095.182-.143.277-.005 0-.008.003-.014.006-.029-.11-.058-.217-.083-.326.17-.168.206-.195.26-.43.041.216.043.225.193.056.29.22.39.282.424.65l-.254.49c-.12.039-.12.039-.158.042a9.343 9.343 0 01-.152-.213c-.05-.173.063-.411-.042-.552zm-.047.167c.011.337.003.378.184.635-.016.156-.028.309-.157.409-.014-.067-.014-.067-.03-.09-.01-.005-.02-.005-.03-.005-.03-.351-.125-.64.033-.949zm.18 1.127c.022-.16.077-.312.105-.47.05-.013.098-.023.15-.034.085-.166.172-.332.259-.495.006.015.01.032.014.05-.14.028.113.848.139.955-.036.1-.07.205-.107.306-.247-.133-.242.237-.245.349h-.03c-.113-.026-.205-.163-.284-.242v-.42h-.001zm.767-.03c-.156-.107-.226-.642-.261-.85.143-.022-.066-.544-.05-.629.008-.005.016-.01.025-.013.008-.055.021-.346.03-.367.12-.14.218-.303.389-.378.012.08.012.08.04.886a.42.42 0 00.096.064c.041-.02.07-.077.099-.112.108 0 .164.37.164.469-.516.918-.516.918-.532.93zm.027-2.265c.067-.129.132-.254.2-.378.091 0 .107 0 .174-.062.075.077-.046.167-.09.218-.17 0-.135.012-.17.177-.037.016-.074.028-.114.045zm.042-1.683c.045.082.064.09.154.072-.02.114-.027.388-.135.453-.017-.083-.019-.075-.104-.09-.033-.076-.13-.249-.113-.33.053-.028.134-.105.198-.105zm-.051.514c.005.067-.01.12.061.12l.14-.142c.105.19.12.437.164.653-.053.06-.146.056-.201.096-.159.306-.28.544-.499.803-.04.12-.048.259-.066.383-.004.004-.01.005-.01.008-.085-.065-.166-.131-.248-.194 0-.63.255-1.291.45-1.88.02-.014.036-.028.059-.028.041.098.037.181.15.181zm-.186-.278c-.016.01-.031.023-.047.037.005-.036.013-.07.021-.106h.01c.004.023.01.045.016.069zm-.19-.217a4.68 4.68 0 01.164-.053c.005.056.014.096-.014.147-.073 0-.141.095-.194.142.015-.08.029-.16.045-.236zm-.096.122l-.036.22c.094.087.136-.113.212-.113-.008.053-.025.098-.02.148.006.003.012.01.022.015-.035.097-.066.192-.097.287-.03-.015-.07-.046-.105-.025l-.302.621c-.043-.215-.043-.215-.05-.305.107-.307.223-.563.376-.848zm-.425 1.014c.02.093-.005.282.116.266.297-.628.297-.628.331-.68a.07.07 0 00.022.022c-.148.464-.225.912-.309 1.395-.091.115-.091.115-.109.123-.045-.226-.045-.227-.063-.267h-.043c-.055.25-.053.366-.24.533.06-.458.126-.962.296-1.392zm-.323 2.937c-.025-.426-.028-.856.001-1.286.082.309.181.669.144.99-.106.195-.106.195-.145.296zm.11.825c-.026-.185-.062-.37-.075-.558.172.09.172.193.234.378-.046.05-.123.117-.142.18h-.016zm.048.084c.018-.09.12-.174.177-.243-.015-.125-.076-.252-.117-.37-.29-.156-.194-.164-.09-.43 0 .082-.026.249.021.313h.03c.043-.055.021-.322.021-.396h.016a.194.194 0 00.029.106c.05 0 .089-.035.126-.07-.002.172-.005.34-.005.513.131.125.209.262.391.283 0 .125 0 .247.003.372.12.414.12.414.114.422a2.005 2.005 0 01-.319-.557c-.153-.026-.18.151-.211.262H10.6l-.172-.205zm1.819 3.474a.023.023 0 00-.011.006c-.085-.045-.179-.113-.271-.127-.15-.19-.3-.39-.43-.598a39.422 39.422 0 00-1.041-2.564c.038.029.115.117.13.128.103-.052.02-.29.16-.303.107.273.225.425.418.652.175.386.225.363.102.735.011.204-.008.181.196.22l-.005.09c-.045-.018-.123-.08-.168-.052.045.459.387.935.706 1.237.08.19.15.379.214.576zm-.178-.878c-.089.044-.058.081-.107.148-.192-.18-.601-.755-.543-.99.043.02.071.044.12.044.034-.04.025-.16.025-.218-.012-.011-.012-.011-.186-.05-.006-.148.033-.236.084-.378.119.162.2.258.235.452-.335.244.298.722.372.992zm-.297-1.21c-.054-.371-.054-.371-.05-.417.12-.027.08-.076.084-.201.276 0 .224-.096.377-.36.006 0 .013-.004.02-.004.005.026.005.026.02.423.087.184.21.348.189.554-.06.024.145.326.18.38.083.1.168.2.252.305a3.24 3.24 0 00-.257.046c-.392-.167-.512-.38-.815-.726zm1.02 1.092c-.124.015-.246.029-.369.04-.036-.145-.07-.295-.105-.44.094 0 .19.083.29.093.452-.064.368-.043.084-.399.117.05.361.168.54.242-.024.218-.274.331-.44.464zm.601-.86c-.304-.05-.54-.15-.826-.276.002-.155.006-.309.013-.463.214.035.292.098.347.316.08.053.209-.09.303-.09.102.047.203.097.305.145.016.099.036.21.029.31-.06.024-.107.048-.17.058zm.714-.872c-.002.017-.123.17-.134.177a2.845 2.845 0 00-.088-.075c0-.026.195-.091.222-.102zm-.55-1.655c0 .227.027.454.023.68a.317.317 0 00-.042-.014c-.024.014-.027.017-.032.048h-.013l-.199-.212c-.079-.21-.29-.536-.247-.765.278-.02.244.017.39-.206.099-.006.129.01.214.062.023.223.037.241-.093.407zm-.779-.122c-.05.008-.1.02-.149.031-.08-.177-.029-.31.135-.417.002.046.006.091.012.14.048.017.1.036.15.052a.48.48 0 01.01.102c-.093-.032-.093-.032-.188-.054-.004.01-.013.016-.016.03.013.04.03.076.046.116zm.063-.289a2.33 2.33 0 01-.003-.096l.133.001c.09-.14-.084-.295.19-.29.091.084.18.166.275.248-.006.012-.006.012-.052.031-.17.292-.176.058-.392.201-.013-.07-.089-.075-.151-.095zm.046-.168a.532.532 0 01.026-.035c.003.014.005.03.006.046h-.028c-.004-.005-.004-.009-.004-.01zm.81.118c-.23-.13-.4-.392-.66-.403-.079-.045-.16-.085-.238-.128-.075-.168.01-.174-.174-.233-.02-.046-.037-.094-.056-.14a.37.37 0 01.036-.01c0-.043 0-.048-.025-.082h-.02c-.03.049-.449.594-.402.743.063.039.131.067.152.084.037.07.154.29.24.272 0 .013 0 .013-.043.151.058.13.058.13.09.184.083 0 .181-.033.261-.055 0-.035-.008-.058-.02-.095.046.015.092.031.14.05.12.308.204.7.494.896.031.258.052.53.062.787.11.091.706.437.32.603-.233-.04-.413-.125-.63-.222-.084.016-.163.064-.241.097-.062-.236-.208-.276-.421-.318a76.886 76.886 0 01-.116-.59c.007-.096.038-.297.045-.409-.06-.619-.06-.619-.064-.727.038-.052.061-.074.067-.14-.044-.024-.084.024-.118.046.01-.17.01-.17.008-.282h-.047c-.06.276-.091.573-.131.858l-.096-.012c-.486-.686-.486-.686-.495-.71.138-.253.284-.506.425-.76.056.14.056.14.066.152.217-.361.442-.717.68-1.06-.02-.06-.04-.134-.085-.18-.03.006-.06.015-.09.02 0-.033.014-.073-.005-.1h-.047c-.025.046-.05.09-.072.137-.074-.008-.07.013-.076.08l-.027-.009c.014-.021.008-.067 0-.093.048-.14.042-.21.182-.26.134.076.154.099.193.249l.144.12c-.006.039-.011.077-.02.116-.014-.023-.022-.027-.043-.033-.072.103-.072.103-.08.131.058.05.125.127.208.103.037.088.134.085.217.103.22.205.145.56.523.543.023-.034.023-.034.03-.034.028.043.054.088.085.131l-.024.015c.013.208.011.245-.102.414zm-.221-1.457h.067v.141h-.022c-.015-.004-.026-.01-.04-.015-.002-.04-.005-.086-.005-.126zm.226.268c.014.069.03.136.035.209a6.936 6.936 0 01-.035-.21zm1.24 2.882c-.04-.041-.08-.086-.12-.126.036-.115.085-.336.254-.336.154.073.252.081.377-.06l.425.134c.052-.028.105-.056.16-.082.016.13.016.13.028.158.03.005.03.005.309.011-.078.076-.3.013-.372.111 0 .082 0 .118-.047.183h-.128l-.096.2c-.229.008-.229.008-.321.015a5.806 5.806 0 01-.083.14.094.094 0 00-.03.007c-.162-.055-.323-.11-.482-.162 0-.068.126-.105.126-.193zm.323.91c-.161-.057-.321-.113-.48-.167 0-.131.216.035.216-.114-.059-.158-.059-.158-.145-.348.145.045.35.141.499.141l.085-.147c.33-.064.295.079.424-.209l.12-.008c.063-.087.088-.114.091-.219.306-.064.238-.088.142.2-.002.027-.006.05-.006.074.02.027.155.168.144.192-.027-.02-.064-.077-.102-.04.003.046.03.122.01.16l-.321.255c-.079.014-.141-.051-.226-.051-.18.204-.027.256.038.515h-.014c-.074-.038-.159-.095-.241-.108l-.093.09c-.05-.015-.113-.167-.14-.217zm1.603 2.508c-.036.006-.069.01-.102.017-.015-.014-.03-.025-.041-.036.007-.178.007-.178.016-.242.046.051.097.104.145.154a.952.952 0 00-.018.107zm.664-2.433c.061 0 .12.007.183.01-.009.049-.045.085-.074.12-.279-.116-.518-.177-.749-.366.168-.23.493.127.64.236zm-.909-1.225c.09.056.193.111.272.184 0 .049-.089.123-.12.16.037.13.037.13.04.171h-.102c-.041.056.004.205.037.261.135.083.135.083.144.093-.033.046-.083.083-.083.142.26.199.49.279.8.398.094-.01.123-.08.175-.16.04-.007.04-.007.076 0a1.078 1.078 0 00-.004.099c-.174.04-.014.631-.004.695-.023-.008-.035-.043-.045-.068h-.035c-.232.252-.465.408-.753.595-.265.077-.265.077-.276.089-.09.545-.09.545-.102.581l-.255.156c-.227-.192-.316-.59-.423-.872-.029-.16-.055-.319-.083-.478.034-.166.148-.318-.051-.369-.046.036-.055.081-.076.137a5.41 5.41 0 00-.146-.01c-.027-.047-.053-.09-.077-.137.054 0 .13-.058.13-.113-.036-.036-.129-.03-.176-.035-.021-.034-.046-.06-.046-.1.152-.139.255.067.377-.014 0-.147-.106-.275-.123-.42.095-.094.137.013.255.013.128-.105.26-.21.391-.313 0-.038 0-.071-.01-.11.068-.003.068-.003.1-.013 0-.087-.096-.168-.151-.232.022-.077.044-.154.065-.233.242-.046.242-.046.267-.058.004-.012.006-.029.012-.039zm-.113-.008c-.019.01-.019.01-.139.028.031-.021.06-.07.099-.07l.04.042zm-.084-.135c-.103.002-.205.003-.305.006-.01-.06-.015-.12-.023-.178-.14 0-.162.117-.321.066.084-.163.09-.152.045-.329.163-.071.171.01.312.131.07.007.142.016.215.025-.002.032-.002.062-.002.096.076.069.093.078.079.183zm.295-.445c-.33.053-.33.053-.346.063a.183.183 0 00-.01.038h-.04c-.15-.015-.323-.086-.371-.246.053 0 .163.131.2.168.05-.002.156 0 .197-.026 0-.085-.098-.178-.14-.242 0-.012.004-.021.006-.032.217-.095.142.046.273.021.182-.126.335.03.53.086 0 .005.003.01.005.012l-.304.158zm-.688-.18c.002-.01.005-.013.007-.021.032-.013.07-.025.103-.038.036.056.102.126.116.191-.027.004-.054.004-.081.007-.048-.047-.098-.093-.145-.14zm-.847-1.4l.071-.223c.204.011.207-.022.281.148a.365.365 0 00.206-.004c-.006-.05-.009-.099-.014-.15.02-.002.04-.007.06-.011l.026-.05c.1-.008.088-.018.095-.114.2.003.4.01.604.016.016.055.037.108.056.164l.17.054c.004.028.01.052.031.074.205-.04.205-.04.231-.037l.15.45c.032.032.069.006.11.006.042.058.156.053.224.06.097.094.127.148.261.155l.044.053c-.025.075-.09.035-.108.174l-.259.02c-.018.038-.018.038-.055.207-.31.067-.23.033-.258.376H17.1c-.122-.04-.423-.199-.538-.175-.092.074-.086.063-.166-.015-.142 0-.268.126-.413.143a.404.404 0 00-.11-.069c-.029-.131-.055-.26-.083-.392-.091-.025-.267-.037-.29-.136.123-.172.118-.143.05-.351-.08 0-.154.032-.23.054-.078-.022-.156-.046-.234-.064-.058-.193-.022-.255.102-.363zm-.101.443c.056 0 .115.016.172.03-.087.28-.077.212.195.317l.019.044.261.072c.025.127.051.252.078.379.021.019.09.05.132.08-.1.01-.051.041-.051.125-.18.083-.153.073-.093.251-.027.046-.054.091-.08.14-.012 0-.024.006-.037.01-.013-.007-.025-.01-.037-.015-.008-.27-.125-.353-.285-.574-.031-.14-.026-.196-.14-.276 0-.103.064-.109-.081-.206-.07-.002-.14-.002-.204-.002.049-.126.1-.251.151-.375zm-.31.614c.04-.064.04-.064.083-.16l.26-.013c.081.082.017.059.017.154.038.03.079.059.119.086.055.29.31.446.32.72-.171-.047-.199.046-.369.096a1.295 1.295 0 00-.1-.054c-.06-.342-.274-.563-.47-.848.029-.002.095.02.14.019zm-.638-.528c.28.025.176-.217.184-.454.034-.04.073-.077.11-.113.033.014.03.05.068.057.027.306.027.306.027.394-.068.104-.161.186-.13.313h-.015c-.036-.012-.036-.012-.386-.076v-.19c.056.014.115.014.142.069zm-.077-.13c-.01.004-.087-.029-.116-.029-.044.062-.021.183-.021.258-.065-.063-.045-.186-.053-.275.174-.018-.134-.206-.08-.315-.001-.041-.004-.078-.006-.118.09.16.181.32.276.479zm.151-1.207c-.128.042-.253.082-.378.127-.083-.04-.149-.052-.21-.072-.028-.098-.142-.095-.058-.205-.027-.04-.06-.053-.1-.076 0-.08.06-.181.088-.26 0-.177-.205-.287-.224-.437.048-.011.077-.011.088-.061l.27-.033c.188.293.188.293.22.335.257.035.171.107.145.346.118.24.118.24.16.336zm-.006-.823c-.122-.039-.123-.039-.165.09h-.035c-.131-.03-.21-.24-.28-.35.05-.069.107-.134.17-.198.203.165.2-.063.377.026-.024.035-.05.347-.067.432zm.058-.504a.654.654 0 00-.08-.015c-.026-.064-.102-.207-.092-.272a.768.768 0 01.04-.026l.012.096c.06-.057.06-.057.094-.081.03.055.129.179.129.24a.284.284 0 01-.103.058zm.45-.495c.016.178.082.271-.007.437-.118.034-.236.067-.354.104.014-.045.077-.058.1-.103-.042-.073-.157-.223-.157-.306.097-.072.178-.139.223-.246.198-.12.39-.257.58-.394-.002-.005-.005-.007-.005-.007a.166.166 0 00-.046.002c-.23.123-.508-.04-.752.132 0 .049.015.057.06.077-.007.018-.016.036-.024.053-.061 0-.106 0-.158-.035-.204 0-.205.232-.384.07.126-.113.258-.226.385-.336.088-.01.177-.023.265-.034.064-.073.127-.142.19-.215.07 0 .068.034.078-.055l.2.122c.222 0 .267-.133.486-.036.009.03.009.03.005.08-.149.11-.298.223-.445.336-.053.087-.155.304-.24.354zm.901.076c-.039-.107-.081-.212-.12-.316a.426.426 0 00-.033-.013c.053-.07.14-.2.223-.22.062.064.074.386.08.5-.05.043-.08.043-.15.05zm.311.051c.016-.02.03-.045.045-.064.018.016.018.016.027.034-.011.013-.011.013-.072.03zm.854-1.454c-.013 0-.024-.003-.036-.006v-.016c.018.006.037.01.055.014-.006.002-.015.005-.018.008zm.934-.585c-.749.303-1.46.739-2.143 1.171-.004.008-.004.016-.004.026.066.038.062.057.15.074a.136.136 0 00-.01.033c-.19.182-.49.634-.687.7-.014-.013-.014-.013-.211-.083 0-.016 0-.016.158-.268.151 0 .176-.033.214-.189.095-.074.192-.145.288-.216-.003-.036-.003-.07-.003-.103.552-.311 1.088-.648 1.648-.946.077-.034.528-.285.59-.266.006.025.021.043.01.067zm3.252-1.844c-.01.004-.018.01-.028.013-.004.068-.004.068.005.112l-.032.007c-.003-.063-.007-.123-.008-.188.01-.002.01-.002.063.056zm-.073.306c-.031 0-.04.01-.06.037-.053-.04-.003-.06.037-.096.012.008.012.008.023.06zm-4.676-.951c-.078.032-.168.084-.251.1.232-.1.232-.1.25-.1zm-.919.458c-.01-.012-.01-.012-.039-.021a.371.371 0 01.046-.017.233.233 0 00-.007.038zm2.38.466c-.083 0-.147.058-.224.058-.059-.08-.274-.055-.37-.061 0-.153-.398-.089-.489-.089v-.061c.1-.003.198-.009.297-.012.01-.016.01-.016.01-.048-.01-.011-.01-.011-.323-.101 0-.014.001-.024.005-.033.196-.027.318-.038.51.017l.003.027c.012.008.02.015.037.021 0 .04-.037.053-.037.098.168.096.332.17.522.1.151.01.151.01.17.019.004.053.007.106.013.16-.023.007-.043.015-.064.02l-.06-.115zm.21-.344c-.057.048-.122.086-.151.152-.04-.02-.059-.066-.093-.1a.439.439 0 01.243-.052zm-.23-.126c.048-.008.098-.015.148-.017-.01.017-.014.042-.037.049a1.66 1.66 0 01-.112-.032zm.23.726v.007c-.075.01-.075.01-.12.024-.012-.015-.012-.015-.013-.03h.132zm-.038.155c-.011.012-.02.027-.03.04-.01-.039-.04-.039-.07-.06.064 0 .253-.026.1.02zm.088-.332c0-.051-.054-.103-.087-.138.065-.002.065-.002.132.007.023.033.011.07.001.11l-.046.02zm.424.484a.026.026 0 00-.014-.011c.008 0 .016.001.025.004-.005.001-.01.005-.01.007zm.066.618c-.015-.012-.015-.012-.057-.02 0-.11.784-.661.885-.741-.106-.006-.128-.01-.194-.09.082-.016.293-.043.344-.018.176-.12.176-.12.2-.143a19.452 19.452 0 00-.306-.185c.075-.102-.18-.102-.247-.147-.089-.147-.09-.092-.25-.008-.135-.098-.231-.117-.405-.128l-.01.01c-.082-.07-.11-.025-.187.04 0 .076.037.087.09.138 0 .032-.026.05-.046.074l-.041-.038c-.003.396-.01.797-.01 1.198h-.069c0-.144-.004-.282-.005-.425-.016.018-.022.018-.042.024-.034-.035-.067-.072-.098-.106.002-.015.002-.015.027-.028.005.012.013.024.02.037l.093.016c.009-.117.009-.117.009-.87-.03-.016-.048-.04-.076-.05-.018.018-.037.037-.063.037a1.365 1.365 0 01-.08-.112c.051-.004.1-.007.148-.013.011-.016.011-.016.011-.047-.01-.01-.01-.01-.134-.044.066-.005.133-.011.2-.011 0-.143.003-.28.003-.42-.645-.035-.645-.035-.69-.045-.135-.102-.135-.102-.164-.112-.142.038-.427.08-.159.166-.05.024-.098.05-.145.076 0 .08.106.077.17.096v.013c-.087.035.055.093.074.098 0 .016.002.031.004.047-.14.007-.277.014-.415.023 0-.016 0-.032.002-.046-.02-.022-.06-.016-.088-.022v-.03c-.034-.035-.081 0-.117.012-.095-.095-.242.063-.264.162l-.223-.019c-.018-.017-.01-.04-.024-.058-.103 0-.22.038-.319.058a.571.571 0 01.047-.035v-.038a.125.125 0 00-.027-.018c-.278.097-.278.097-.293.094.214-.241.576-.257.825-.44v-.031a.221.221 0 00-.032-.025c1.002-.401 2.164-.08 3.164.082.459.193.918.39 1.375.585 0 .171-.002.196-.12.314 0 .078.114.086.126.18.014.003.033.01.05.017.012.072.025.147.039.22-.154.047-.603.238-.747.213-.162-.328-.154-.287-.508-.34a.69.69 0 01-.007-.086c-.435.302-.843.616-1.244.959zm-.035-1.125c.013.002.034.004.05.008.004.011.011.023.017.036a.23.23 0 00-.054.01c-.005-.02-.01-.037-.013-.054zm.715.067c-.014.008-.024.016-.036.026v.032l.036.03c-.024.012-.024.012-.062.015-.028-.068-.135-.058-.199-.067-.008-.04-.008-.077-.033-.109-.041 0-.065.031-.098.056-.016-.112-.01-.119-.093-.176 0-.007 0-.014.003-.02.02-.01.037-.018.059-.026.156.09.295.054.459.101.01.02.017.042.03.064-.048-.013-.133-.05-.173-.019a.398.398 0 00-.003.042c.034.017.073.034.11.051zm-.267.324c-.013 0-.024.003-.033.003-.01-.011-.018-.022-.027-.03l.054.012c.001.006.004.01.006.015zm-.2-.104c-.004.015-.004.028-.004.04h-.014l-.014-.02c.007-.014.018-.026.032-.02zm-.597-.089c.01-.002.023-.004.038-.004 0 .007 0 .013.003.022-.005 0-.011.005-.011.005-.012-.007-.022-.016-.03-.023zm3.31-.873a7.836 7.836 0 00-3.14-.733 4.337 4.337 0 00-.008.17c1.01.056 1.917.237 2.86.62.093-.02.19-.039.287-.057zm-5.811 1.587l.033-.107c.048-.02.129-.036.088-.102-.029-.006-.055-.006-.08-.008l-.061-.11c.019-.032.061-.032.088-.061-.002-.014-.002-.023-.002-.034-.016-.011-.028-.022-.042-.03a.26.26 0 00.03-.113l-.151-.065c0-.114-.17-.07-.17-.117.258-.122.755-.227.997-.02a.342.342 0 00-.028.134c.02.007.13 0 .138.007-.011.018-.003.032 0 .05.076.028.196.04.256-.018.01.003.01.003.061.069.264.088.264.088.278.084-.75-.5-1.715-1.027-2.653-.949a8.039 8.039 0 00-2.176 1.713l.192-.083c1.028-.331 2.136-.285 3.202-.24zm-.518-1.341a.279.279 0 00-.026.012c.016-.014.016-.014.025-.012z" fill="#fff"/></svg><svg fill="none" viewBox="0 0 5 4" id="triangle-down" xmlns="http://www.w3.org/2000/svg"><path d="M2.5 4L.335.25h4.33L2.5 4z" fill="#242627"/></svg><svg viewBox="0 0 15 8" id="vk" xmlns="http://www.w3.org/2000/svg"><path d="M12.992 4.544c.466.405.96.784 1.379 1.228.184.195.36.401.494.629.19.325.02.684-.31.704l-2.053-.001c-.53.039-.951-.15-1.307-.47-.284-.256-.547-.528-.82-.793a1.896 1.896 0 00-.37-.29c-.28-.16-.522-.111-.683.148-.163.262-.2.553-.216.846-.022.427-.168.54-.653.559-1.037.044-2.021-.095-2.935-.558-.806-.408-1.431-.984-1.976-1.637-1.06-1.268-1.87-2.663-2.6-4.098C.778.49.9.314 1.302.31 1.97.297 2.64.299 3.31.309c.273.001.452.14.557.367.362.788.805 1.537 1.361 2.231.148.186.3.37.515.5.237.145.419.096.53-.137.072-.15.103-.309.12-.468.052-.549.06-1.096-.034-1.64C6.301.82 6.084.6 5.7.534 5.504.503 5.534.437 5.63.338c.165-.17.32-.276.63-.276h2.317c.365.063.446.208.496.533l.002 2.278c-.004.127.072.5.328.583.205.06.34-.086.463-.2.554-.522.95-1.137 1.305-1.775.157-.281.292-.571.422-.863.098-.216.25-.322.524-.318l2.233.002c.066 0 .133 0 .197.01.376.056.478.2.363.525-.183.51-.539.935-.887 1.36-.373.456-.77.897-1.14 1.355-.338.418-.312.63.11.992z"/></svg></svg>