<svg width="1076" height="446" fill="none" xmlns="http://www.w3.org/2000/svg"><path d="M802.058 307.421c-1.479.899-3.556 1.541-4.648 1.469-1.095-.078-.78-.873.707-1.81 1.486-.941 3.58-1.634 4.666-1.521 1.084.114.753.961-.725 1.862zm15.775 3.351c-2.065 1.052-4.88 1.583-6.303 1.228s-.897-1.525 1.182-2.654c2.085-1.13 4.925-1.726 6.331-1.296 1.407.431.857 1.669-1.21 2.722zm14.592 5.512c-2.638 1.084-6.168 1.403-7.906.748-1.737-.653-1.004-2.128 1.654-3.333 2.658-1.206 6.219-1.588 7.937-.81 1.714.778.951 2.312-1.685 3.395zm14.07 6.467c-3.189.99-7.471 1.074-9.559.195-2.091-.883-1.175-2.531 2.043-3.702 3.219-1.174 7.503-1.279 9.565-.216 2.06 1.059 1.142 2.732-2.049 3.723zm14.226 6.205c-3.726.777-8.824.678-11.357-.26-2.533-.941-1.509-2.566 2.257-3.596 3.766-1.033 8.82-.876 11.313.316 2.493 1.192 1.514 2.762-2.213 3.54zm15.032 4.717c-4.24.438-10.275.308-13.388-.431-3.112-.74-2.088-2.081 2.206-2.861 4.296-.782 10.199-.434 13.256.645 3.06 1.082 2.168 2.206-2.074 2.647zm16.498 2.02c-4.731-.036-11.853.02-15.738-.168-3.883-.189-3.001-.901 1.805-1.315 4.805-.413 11.665-.018 15.474.621 3.809.639 3.19.896-1.541.862z" fill="#F2F2F2"/><path d="M893.341 335.702c5.294.076 13.253.319 18.049.096 4.791-.226 4.685-1.335-.502-1.998-5.186-.663-13.591-.132-18.487.677-4.898.811-4.353 1.144.94 1.225zm-69.968-41.223c-1.46.882-3.491 1.396-4.553 1.168-1.064-.23-.748-1.145.716-2.064 1.463-.919 3.518-1.468 4.575-1.202 1.055.265.717 1.214-.738 2.098zm15.371 5.613c-2.047 1.047-4.818 1.41-6.202.845-1.384-.565-.848-1.893 1.209-3.011 2.062-1.117 4.856-1.538 6.231-.903 1.373.635.81 2.021-1.238 3.069zm14.257 7.669c-2.63 1.098-6.124 1.217-7.818.304-1.696-.916-.938-2.611 1.705-3.822 2.645-1.215 6.163-1.394 7.844-.366 1.68 1.026.901 2.781-1.731 3.884zm13.776 8.53c-3.198 1.046-7.446.915-9.487-.276-2.042-1.194-1.093-3.124 2.128-4.332 3.221-1.209 7.474-1.103 9.497.255 2.021 1.355 1.062 3.31-2.138 4.353zm13.949 8.239c-3.76.877-8.836.559-11.314-.748-2.477-1.307-1.395-3.292 2.39-4.399 3.787-1.108 8.822-.732 11.274.805 2.454 1.537 1.412 3.465-2.35 4.342zm14.746 6.756c-4.307.595-10.332.236-13.38-.936-3.047-1.168-1.936-2.948 2.404-3.855 4.341-.907 10.249-.349 13.262 1.13 3.011 1.481 2.021 3.063-2.286 3.661z" fill="#F2F2F2"/><path d="M911.669 335.391c-4.835.192-11.958-.003-15.758-.692-3.802-.692-2.805-1.935 2.078-2.536 4.883-.6 11.78.002 15.53 1.101 3.757 1.095 2.985 1.936-1.85 2.127zm1.075.139c5.41-.178 13.438.263 18.155.572 4.717.308 4.4-.077-.937-.431-5.339-.358-13.751-.096-18.539.13-4.795.222-4.093-.093 1.321-.271zm-68.373-53.691c-1.434.86-3.432 1.238-4.473.871-1.042-.371-.729-1.374.709-2.268 1.437-.892 3.45-1.304 4.49-.903 1.037.4.707 1.44-.726 2.3zm15.111 7.656c-2.029 1.038-4.763 1.243-6.122.49-1.359-.754-.824-2.232 1.21-3.329 2.033-1.101 4.792-1.359 6.147-.542 1.354.814.793 2.342-1.235 3.381zm14.059 9.592c-2.623 1.119-6.094 1.065-7.76-.087-1.669-1.151-.901-3.037 1.727-4.254 2.628-1.218 6.121-1.227 7.784.024 1.663 1.249.874 3.2-1.751 4.317zm13.615 10.386c-3.218 1.106-7.455.795-9.469-.68-2.014-1.474-1.039-3.668 2.185-4.92 3.222-1.248 7.468-.96 9.477.66 2.008 1.619 1.021 3.837-2.193 4.94zm13.806 10.057c-3.811.995-8.895.501-11.337-1.14-2.446-1.64-1.321-3.964 2.498-5.16 3.815-1.195 8.869-.655 11.306 1.189 2.442 1.841 1.344 4.115-2.467 5.111zm14.614 8.58c-4.398.786-10.451.244-13.458-1.317-3.005-1.558-1.821-3.768 2.588-4.823 4.408-1.057 10.365-.345 13.362 1.485 2.997 1.831 1.908 3.871-2.492 4.655zm16.034 5.97c-4.976.463-12.153.097-15.9-1.05-3.748-1.146-2.635-2.923 2.363-3.743 4.993-.824 11.974-.104 15.704 1.403 3.731 1.505 2.813 2.926-2.167 3.39z" fill="#F2F2F2"/><path d="M932.668 334.33c5.575-.491 13.729.047 18.415.83 4.685.781 4.149 1.13-1.393 1.144-5.539.016-14.027.106-18.746-.205-4.719-.31-3.851-1.281 1.724-1.769zm-67.695-64.763c-1.406.831-3.373 1.09-4.404.599-1.032-.493-.733-1.574.674-2.431 1.404-.855 3.383-1.152 4.415-.631 1.029.517.718 1.634-.685 2.463zm15.022 9.439c-2.003 1.024-4.715 1.089-6.065.171-1.351-.917-.83-2.514 1.175-3.591 2.008-1.079 4.739-1.192 6.092-.219 1.35.968.804 2.611-1.202 3.639zm14.036 11.255c-2.619 1.14-6.078.937-7.74-.414-1.664-1.358-.9-3.421 1.714-4.639 2.613-1.224 6.094-1.072 7.763.37 1.664 1.435.881 3.545-1.737 4.683zm13.632 11.977c-3.24 1.174-7.492.723-9.501-.996-2.01-1.718-1.02-4.15 2.211-5.444 3.23-1.294 7.492-.864 9.514.976 2.015 1.839 1.019 4.289-2.224 5.464zm13.839 11.61c-3.875 1.13-9.003.505-11.444-1.424-2.438-1.93-1.276-4.569 2.581-5.866 3.861-1.299 8.969-.632 11.426 1.463 2.456 2.095 1.315 4.696-2.563 5.827zm14.652 10.135c-4.513 1.005-10.646.356-13.646-1.542-2.997-1.9-1.739-4.512 2.752-5.742 4.496-1.23 10.548-.433 13.567 1.692 3.02 2.123 1.844 4.588-2.673 5.592zm16.048 7.573c-5.159.783-12.448.328-16.18-1.217-3.73-1.548-2.502-3.837 2.634-4.917 5.136-1.086 12.263-.323 16.015 1.523 3.756 1.846 2.687 3.828-2.469 4.611zm1.057.357c5.781-.853 14.141-.324 18.842.859 4.703 1.18 3.944 2.244-1.855 2.697-5.794.455-14.431.467-19.113-.316-4.687-.785-3.653-2.389 2.126-3.24zm-68.133-74.15c-1.375.795-3.315.945-4.347.35-1.036-.599-.769-1.729.603-2.552 1.369-.817 3.325-.997 4.361-.377 1.037.619.755 1.782-.617 2.579zm15.144 10.909c-1.979 1.009-4.684.95-6.045-.106-1.362-1.055-.868-2.74 1.106-3.79 1.974-1.051 4.689-1.038 6.06.06 1.37 1.098.857 2.83-1.121 3.836zm14.218 12.617c-2.616 1.159-6.092.834-7.773-.686-1.681-1.527-.943-3.73 1.656-4.953 2.6-1.227 6.094-.95 7.794.639 1.696 1.584.94 3.84-1.677 5zm13.859 13.249c-3.273 1.252-7.573.699-9.607-1.222-2.035-1.922-1.057-4.553 2.188-5.895 3.246-1.344 7.553-.816 9.616 1.195 2.062 2.012 1.079 4.669-2.197 5.922zm14.087 12.854c-3.957 1.284-9.169.588-11.64-1.58s-1.29-5.082 2.623-6.496c3.915-1.413 9.113-.685 11.626 1.607 2.516 2.297 1.348 5.181-2.609 6.469zm14.891 11.382c-4.657 1.255-10.925.572-13.954-1.61-3.029-2.178-1.722-5.168 2.879-6.594 4.601-1.43 10.804-.619 13.891 1.736 3.088 2.347 1.839 5.211-2.816 6.468zm16.258 8.867c-5.374 1.149-12.844.693-16.603-1.186-3.758-1.878-2.433-4.663 2.876-6.045 5.305-1.382 12.65-.664 16.478 1.449 3.828 2.109 2.626 4.631-2.751 5.782zm1.076.44c6.025-1.271 14.674-.866 19.453.627 4.774 1.49 3.796 3.257-2.304 4.214-6.102.957-14.971 1.021-19.673-.158-4.702-1.183-3.501-3.416 2.524-4.683zm-69.873-81.577c-1.337.756-3.266.804-4.319.129-1.054-.679-.832-1.839.5-2.609 1.328-.771 3.268-.852 4.329-.159 1.059.692.826 1.883-.51 2.639zm15.51 12.025c-1.955.984-4.666.819-6.058-.339-1.393-1.164-.952-2.902.989-3.916 1.939-1.019 4.662-.898 6.072.294 1.409 1.187.952 2.97-1.003 3.961zm14.645 13.609c-2.616 1.179-6.126.772-7.853-.876-1.726-1.655-1.035-3.958 1.551-5.183 2.585-1.224 6.109-.864 7.87.833 1.755 1.691 1.051 4.043-1.568 5.226zm14.328 14.178c-3.315 1.337-7.694.735-9.786-1.335-2.096-2.07-1.154-4.876 2.113-6.274 3.263-1.4 7.653-.816 9.801 1.317 2.145 2.128 1.188 4.952-2.128 6.292zm14.577 13.741c-4.054 1.457-9.402.748-11.943-1.592-2.541-2.346-1.365-5.5 2.614-7.042 3.98-1.542 9.318-.82 11.933 1.606s1.45 5.568-2.604 7.028zm15.378 12.277c-4.828 1.536-11.281.892-14.392-1.496-3.106-2.392-1.77-5.725 2.96-7.373 4.728-1.651 11.139-.908 14.346 1.595 3.205 2.501 1.912 5.734-2.914 7.274zm16.726 9.8c-5.633 1.563-13.353 1.215-17.193-.918-3.837-2.133-2.43-5.378 3.082-7.094 5.508-1.72 13.137-1.152 17.098 1.134 3.963 2.288 2.643 5.311-2.987 6.878zm1.088.503c6.322-1.742 15.342-1.579 20.262.13 4.92 1.707 3.74 4.146-2.73 5.671-6.46 1.525-15.643 1.756-20.421.261-4.775-1.494-3.429-4.326 2.889-6.062zm-73.013-86.801c-1.328.72-3.295.7-4.402-.029-1.109-.729-.963-1.889.323-2.607 1.282-.719 3.256-.726 4.405.003 1.149.727.999 1.913-.326 2.633zm16.669 12.588c-2.151 1.026-5.094.85-6.56-.374-1.466-1.226-.97-3.034 1.093-4.057 2.068-1.025 4.996-.88 6.549.342s1.07 3.059-1.082 4.089zm15.859 14.058c-3.143 1.354-7.192 1.044-9.002-.683-1.817-1.731-.835-4.212 2.157-5.557 2.993-1.346 6.984-1.052 8.95.67 1.962 1.717 1.04 4.215-2.105 5.57zm15.599 14.556c-4.296 1.7-9.529 1.307-11.723-.854-2.193-2.167-.698-5.267 3.369-6.949 4.069-1.684 9.255-1.292 11.676.856 2.418 2.143.977 5.243-3.322 6.947zm15.853 14.074c-5.619 2.067-11.883 1.637-14.541-.815-2.662-2.454-.896-5.998 4.396-8.036 5.294-2.04 11.837-1.666 14.797.766 2.962 2.428.968 6.012-4.652 8.085zm16.655 12.616c-7.1 2.45-14.434 2.129-17.673-.397-3.242-2.525-1.362-6.31 5.299-8.722 6.663-2.413 14.754-2.214 18.384.286 3.62 2.498 1.09 6.381-6.01 8.833zm17.98 10.182c-8.74 2.835-17.2 2.824-21.18.525-3.984-2.302-2.161-6.068 6.02-8.863 8.18-2.796 18.02-2.984 22.48-.701 4.46 2.284 1.42 6.2-7.32 9.039zm1.17.527c9.84-3.182 21.66-4.011 27.15-2.3 5.49 1.716 2.05 5.338-8.48 8.548-10.53 3.214-20.21 3.773-25.13 2.066-4.92-1.709-3.38-5.135 6.46-8.314zm-80.919-88.619c-1.273.661-3.325.598-4.59-.128-1.267-.726-1.292-1.838-.053-2.496 1.235-.658 3.292-.618 4.594.109 1.299.723 1.321 1.857.049 2.515zm19.118 12.466c-2.039.966-5.082.754-6.781-.46-1.703-1.213-1.478-2.96.486-3.916 1.965-.958 4.991-.766 6.768.44 1.774 1.204 1.562 2.968-.473 3.936zm18.376 13.813c-2.951 1.299-7.104.97-9.229-.729-2.129-1.704-1.539-4.119 1.283-5.395 2.822-1.278 6.914-.956 9.173.728 2.255 1.678 1.728 4.097-1.227 5.396zm18.145 14.235c-4.012 1.66-9.433 1.317-12.015-.808-2.583-2.124-1.52-5.19 2.287-6.819 3.809-1.625 9.085-1.226 11.868.864 2.78 2.085 1.87 5.099-2.14 6.763zm18.43 13.722c-5.21 2.059-12.11 1.847-15.22-.564-3.109-2.41-1.49-6.055 3.43-8.06 4.93-2.006 11.54-1.653 14.93.704 3.4 2.357 2.08 5.861-3.14 7.92zm19.23 12.267c-6.56 2.479-15.17 2.617-18.92.133-3.74-2.483-1.52-6.593 4.65-9.001 6.17-2.409 14.28-2.262 18.4.15 4.12 2.413 2.42 6.238-4.13 8.718zm20.53 9.877c-8.04 2.915-18.64 3.685-23.16 1.41-4.51-2.277-1.68-6.663 5.87-9.5 7.54-2.836 17.34-3.111 22.35-.916 5.02 2.194 2.97 6.088-5.06 9.006zm1.32.507c9.04-3.274 20.75-4.227 26.84-2.595 6.09 1.631 3.82 5.282-5.82 8.635-9.64 3.352-22.54 5.078-28.03 3.363-5.48-1.71-2.02-6.131 7.01-9.403zm-97.099-86.026c-1.213.597-3.333.495-4.733-.22-1.405-.714-1.581-1.767-.398-2.356 1.182-.595 3.303-.51 4.737.201 1.43.708 1.607 1.775.394 2.375zm21.242 12.152c-1.925.892-5.044.65-6.947-.531-1.905-1.183-1.926-2.844-.067-3.723 1.863-.877 4.961-.647 6.929.522 1.971 1.169 2.009 2.839.085 3.732zm20.567 13.395c-2.769 1.223-6.992.882-9.393-.767-2.403-1.656-2.163-3.966.491-5.16 2.651-1.192 6.812-.843 9.332.782 2.51 1.619 2.34 3.92-.43 5.145zm20.37 13.737c-3.73 1.597-9.21 1.267-12.13-.793-2.93-2.054-2.35-5.007 1.21-6.556 3.56-1.548 8.89-1.143 12 .861 3.1 2.008 2.66 4.891-1.08 6.488zm20.69 13.19c-4.83 2.011-11.75 1.838-15.27-.487-3.52-2.325-2.53-5.861 2.05-7.799 4.57-1.941 11.21-1.606 14.98.646 3.77 2.251 3.06 5.626-1.76 7.64zm21.47 11.731c-6.04 2.465-14.62 2.683-18.84.293-4.22-2.391-2.78-6.399 2.93-8.765 5.71-2.366 13.8-2.267 18.36.025 4.55 2.293 3.6 5.988-2.45 8.447zm22.75 9.396c-7.38 2.937-17.87 3.814-22.94 1.633-5.06-2.185-3.17-6.499 3.79-9.322 6.95-2.818 16.68-3.172 22.18-1.105 5.49 2.066 4.34 5.857-3.03 8.794zm-109.926-81.772c-1.151.526-3.319.385-4.84-.304-1.521-.691-1.839-1.663-.71-2.182 1.124-.522 3.287-.399 4.834.286 1.547.681 1.869 1.674.716 2.2zm23.086 11.69c-1.814.806-4.987.534-7.067-.605s-2.334-2.695-.576-3.482c1.756-.786 4.904-.517 7.043.604 2.14 1.12 2.41 2.678.6 3.483zm22.47 12.814c-2.58 1.129-6.85.774-9.49-.81-2.64-1.586-2.73-3.761-.25-4.854 2.49-1.093 6.7-.719 9.44.83 2.73 1.543 2.89 3.701.3 4.834zm22.33 13.083c-3.47 1.505-8.98 1.179-12.2-.783-3.23-1.965-3.09-4.767.23-6.211 3.31-1.444 8.68-1.032 12.06.868 3.38 1.901 3.38 4.621-.09 6.126zm22.65 12.497c-4.47 1.93-11.38 1.798-15.26-.413-3.88-2.212-3.46-5.587.79-7.427 4.24-1.839 10.88-1.524 14.99.6 4.1 2.12 3.95 5.308-.52 7.24zm23.44 11.052c-5.57 2.4-14.09 2.678-18.74.416-4.64-2.263-3.91-6.113 1.37-8.392 5.28-2.279 13.34-2.22 18.28-.077 4.94 2.144 4.66 5.652-.91 8.053zm-97.719-68.241c-1.089.449-3.287.271-4.91-.388-1.624-.658-2.075-1.546-1.009-1.986 1.061-.441 3.253-.278 4.904.372 1.644.651 2.1 1.553 1.015 2.002zm24.699 11.093c-1.7.707-4.9.405-7.14-.675-2.24-1.082-2.7-2.512-1.05-3.197 1.65-.683 4.83-.381 7.12.676 2.28 1.058 2.76 2.487 1.07 3.196zm24.14 12.099c-2.41 1.019-6.71.647-9.55-.85-2.86-1.5-3.25-3.519-.92-4.493 2.31-.975 6.55-.57 9.49.883 2.93 1.457 3.39 3.442.98 4.46zm24.02 12.29c-3.22 1.391-8.73 1.066-12.22-.78-3.49-1.852-3.75-4.464-.67-5.78 3.09-1.313 8.46-.89 12.09.889 3.62 1.776 4.02 4.283.8 5.671zm24.39 11.674c-4.13 1.812-11.02 1.709-15.22-.366-4.2-2.074-4.29-5.241-.36-6.949 3.93-1.709 10.56-1.394 14.96.575 4.4 1.97 4.74 4.925.62 6.74zm-81.97-53.098c-1.02.368-3.23.16-4.95-.46-1.71-.622-2.28-1.408-1.29-1.763 1-.357 3.21-.155 4.94.455 1.74.607 2.32 1.404 1.3 1.768zm26.11 10.383c-1.59.599-4.8.268-7.18-.745-2.37-1.013-3.03-2.3-1.49-2.873 1.54-.571 4.74-.227 7.15.759 2.42.986 3.1 2.262 1.52 2.859zm25.61 11.278c-2.24.89-6.54.503-9.57-.895-3.03-1.399-3.71-3.234-1.55-4.074 2.16-.84 6.4-.406 9.51.941 3.11 1.347 3.85 3.138 1.61 4.028zm25.56 11.39c-2.98 1.246-8.49.919-12.21-.798-3.73-1.72-4.36-4.112-1.5-5.275 2.85-1.165 8.22-.719 12.07.921 3.85 1.637 4.62 3.911 1.64 5.152zm-61.5-38.164c-1.86.543-4.7.481-6.49-.091-1.8-.575-1.85-1.443.02-1.983 1.87-.543 4.84-.521 6.62.05 1.78.568 1.71 1.478-.15 2.024zm27.15 9.643c-2.59.803-6 .498-8.5-.437-2.49-.936-3.14-2.128-.53-2.922 2.61-.798 6.74-.689 9.23.233 2.48.923 2.39 2.319-.2 3.126zm26.72 10.422c-3.28 1.098-7.46.647-10.66-.639-3.2-1.292-4.27-2.876-.95-3.951 3.32-1.074 8.59-.909 11.78.35 3.19 1.256 3.12 3.142-.17 4.24zm-26.82-27.522c-1.87.483-4.78.415-6.52-.145-1.74-.562-1.63-1.406.25-1.883 1.88-.479 4.81-.415 6.53.147 1.72.557 1.6 1.399-.26 1.881zm26.31 9.369c-2.57.713-6.62.564-9.05-.338-2.44-.905-2.3-2.205.3-2.907 2.6-.706 6.65-.554 9.06.339 2.4.89 2.26 2.191-.31 2.906zm.68-15.902c-1.85.417-4.71.307-6.37-.244-1.68-.552-1.51-1.331.36-1.748 1.87-.418 4.72-.316 6.38.232 1.64.55 1.48 1.339-.37 1.76zM214.19 468.327c7.26-2.473 15.688-8.578 19.239-14.523 3.552-5.945.887-9.4-6.427-6.746-7.311 2.654-16.457 10.272-19.956 16.033-3.497 5.764-.113 7.708 7.144 5.236zm26.69-9.241c7.438-2.616 16.03-8.984 19.63-15.114 3.597-6.131.841-9.62-6.641-6.82-7.481 2.8-16.82 10.682-20.373 16.626-3.554 5.944-.051 7.922 7.384 5.308zm27.241-9.699c7.569-2.722 16.283-9.328 19.922-15.645 3.637-6.316.831-9.87-6.777-6.963-7.605 2.908-17.097 11.039-20.696 17.169-3.6 6.13-.014 8.16 7.551 5.439zm26.849-8.692c-6.829 2.487-14.626 8.43-17.138 12.729-2.509 4.291 1.164 5.488 7.957 3.169 6.788-2.323 14.153-7.416 16.698-11.873 2.551-4.461-.69-6.509-7.517-4.025zm.775-1.331c7.652-2.797 16.446-9.61 20.119-16.116 3.672-6.499.844-10.15-6.843-7.167-7.686 2.98-17.289 11.327-20.924 17.639-3.638 6.322-.002 8.44 7.648 5.644zm27.064-8.852c-6.861 2.521-14.735 8.651-17.288 13.134-2.55 4.474 1.132 5.788 7.957 3.424 6.823-2.359 14.231-7.635 16.817-12.275 2.591-4.641-.627-6.807-7.486-4.283zm.782-1.386c7.688-2.839 16.522-9.827 20.231-16.512 3.707-6.682.889-10.455-6.835-7.436-7.72 3.021-17.393 11.548-21.065 18.05-3.672 6.504-.017 8.736 7.669 5.898zm15.968 11.274c-5.986 2.063-12.484 6.663-14.351 10.008-1.866 3.345 1.561 4.312 7.515 2.375 5.954-1.932 12.211-6.144 14.109-9.614 1.899-3.47-1.287-4.831-7.273-2.769zm11.127-20.17c-6.851 2.529-14.767 8.819-17.361 13.476-2.591 4.659 1.066 6.099 7.879 3.724 6.812-2.373 14.227-7.796 16.857-12.609 2.633-4.814-.526-7.123-7.375-4.591zm.793-1.428c7.676-2.846 16.517-9.98 20.262-16.839 3.743-6.855.975-10.772-6.738-7.753-7.71 3.022-17.413 11.698-21.118 18.382-3.706 6.685-.081 9.056 7.594 6.21zm6.315 29.339c-5.087 1.631-10.454 5.217-11.932 7.935-1.478 2.718 1.462 3.637 6.522 2.101 5.058-1.54 10.34-5.03 11.844-7.838 1.505-2.808-1.347-3.828-6.434-2.198zm9.325-17.255c-5.938 2.052-12.435 6.779-14.343 10.287-1.91 3.504 1.447 4.597 7.35 2.666 5.9-1.93 12.137-6.251 14.083-9.877 1.942-3.627-1.153-5.127-7.09-3.076zm11.315-20.911c-6.799 2.507-14.718 8.925-17.356 13.759-2.635 4.833.955 6.419 7.713 4.06 6.755-2.364 14.152-7.904 16.827-12.881 2.678-4.984-.39-7.447-7.184-4.938zm.801-1.476c7.618-2.823 16.426-10.059 20.212-17.083 3.784-7.018 1.11-11.103-6.548-8.117-7.655 2.984-17.363 11.779-21.105 18.637-3.744 6.861-.176 9.385 7.441 6.563zm5.555 30.974c-5.005 1.609-10.351 5.291-11.872 8.143-1.518 2.851 1.331 3.885 6.306 2.358 4.973-1.524 10.209-5.095 11.758-8.034 1.551-2.937-1.187-4.077-6.192-2.467zm9.558-17.996c-5.848 2.018-12.329 6.851-14.285 10.51-1.955 3.658 1.305 4.89 7.115 2.987 5.806-1.907 11.997-6.318 13.993-10.087 1.995-3.774-.975-5.429-6.823-3.41zm11.535-21.607c-6.705 2.458-14.597 8.971-17.281 13.971-2.68 4.994.807 6.746 7.464 4.425 6.653-2.319 13.993-7.947 16.72-13.079 2.732-5.135-.202-7.773-6.903-5.317zm.817-1.508c7.512-2.764 16.258-10.079 20.089-17.249 3.83-7.172 1.288-11.44-6.272-8.527-7.556 2.913-17.225 11.79-21.01 18.808-3.782 7.023-.318 9.732 7.193 6.968zm4.556 32.593c-4.886 1.571-10.187 5.329-11.75 8.307-1.565 2.978 1.159 4.13 6.012 2.638 4.851-1.493 10.018-5.133 11.616-8.189 1.599-3.054-.992-4.327-5.878-2.756zm9.836-18.677c-5.719 1.96-12.151 6.867-14.158 10.671-2.007 3.8 1.116 5.18 6.789 3.321 5.674-1.856 11.785-6.331 13.836-10.237 2.055-3.902-.748-5.715-6.467-3.755zm11.77-22.244c-6.566 2.377-14.407 8.952-17.141 14.105-2.733 5.15.607 7.068 7.119 4.818 6.508-2.252 13.765-7.927 16.553-13.202 2.79-5.275.032-8.097-6.531-5.721zm.826-1.549c7.356-2.673 16.013-10.013 19.9-17.319 3.888-7.311 1.52-11.775-5.894-8.968-7.412 2.802-17.019 11.715-20.849 18.889-3.832 7.173-.514 10.069 6.843 7.398zm-5.987 51.939c-3.931 1.185-8.251 4.243-9.616 6.854-1.367 2.607.709 3.826 4.615 2.687 3.903-1.135 8.178-4.239 9.573-6.895 1.393-2.654-.642-3.829-4.572-2.646zm9.296-17.732c-4.734 1.516-9.962 5.322-11.579 8.412-1.618 3.089.948 4.37 5.641 2.924 4.693-1.446 9.764-5.123 11.421-8.283 1.658-3.159-.75-4.565-5.483-3.053zm10.139-19.29c-5.55 1.88-11.907 6.829-13.972 10.764-2.067 3.932.878 5.469 6.376 3.679 5.498-1.785 11.509-6.294 13.63-10.317 2.118-4.024-.481-6.002-6.034-4.126zm12.062-22.815c-6.386 2.266-14.143 8.872-16.939 14.158-2.797 5.291.357 7.398 6.681 5.241 6.32-2.157 13.466-7.85 16.325-13.247 2.862-5.397.316-8.418-6.067-6.152zm.851-1.581c7.157-2.547 15.684-9.88 19.641-17.302 3.955-7.421 1.808-12.103-5.416-9.44-7.223 2.663-16.732 11.573-20.619 18.88-3.891 7.306-.762 10.408 6.394 7.862zm-7.908 54.046c-3.762 1.136-7.994 4.219-9.409 6.909-1.415 2.687.489 4.008 4.221 2.912 3.729-1.094 7.898-4.219 9.344-6.95 1.45-2.726-.393-4.007-4.156-2.871zm9.66-18.267c-4.543 1.44-9.678 5.273-11.357 8.462-1.679 3.193.687 4.598 5.184 3.216 4.496-1.38 9.45-5.073 11.177-8.323 1.724-3.252-.461-4.796-5.004-3.355zm10.504-19.829c-5.343 1.774-11.599 6.738-13.734 10.787-2.136 4.048.591 5.744 5.875 4.049 5.281-1.697 11.166-6.203 13.364-10.33 2.198-4.125-.162-6.28-5.505-4.506zm12.413-23.306c-6.164 2.126-13.813 8.72-16.681 14.133-2.868 5.408.051 7.707 6.14 5.674 6.085-2.037 13.096-7.71 16.039-13.21 2.944-5.501.662-8.723-5.498-6.597zm.857-1.61c6.909-2.388 15.292-9.661 19.332-17.178 4.038-7.516 2.16-12.429-4.832-9.945-6.991 2.48-16.38 11.343-20.335 18.765-3.955 7.423-1.072 10.745 5.835 8.358zm-20.418 75.059c-2.838.823-6.208 3.424-7.517 5.867-1.311 2.444-.091 3.825 2.723 3.02 2.814-.805 6.177-3.508 7.511-5.969 1.333-2.459.121-3.743-2.717-2.918zm10.262-19.061c-3.561 1.07-7.683 4.166-9.158 6.921-1.475 2.756.223 4.169 3.747 3.128 3.524-1.038 7.567-4.161 9.081-6.948 1.512-2.786-.108-4.172-3.67-3.101zm10.082-18.72c-4.315 1.349-9.335 5.183-11.086 8.459-1.752 3.275.382 4.812 4.643 3.512 4.263-1.299 9.077-4.98 10.884-8.307 1.806-3.323-.123-5.011-4.441-3.664zm10.928-20.273c-5.094 1.646-11.23 6.596-13.446 10.742-2.218 4.147.249 6.007 5.272 4.426 5.024-1.586 10.76-6.064 13.05-10.274 2.29-4.204.221-6.538-4.876-4.894zm12.802-23.709c-5.897 1.958-13.411 8.507-16.366 14.019-2.954 5.513-.314 8.007 5.496 6.123 5.807-1.887 12.654-7.501 15.697-13.084 3.043-5.584 1.069-9.014-4.827-7.058zm.899-1.63c6.615-2.196 14.822-9.365 18.963-16.951 4.139-7.586 2.584-12.728-4.13-10.463-6.711 2.265-15.962 11.031-20 18.547-4.041 7.515-1.444 11.065 5.167 8.867zm-23.67 77.168c-2.53.75-5.775 3.336-7.138 5.81-1.364 2.48-.357 3.931 2.138 3.195 2.493-.738 5.686-3.439 7.085-5.931 1.394-2.489.444-3.826-2.085-3.074zm10.77-19.38c-3.221.974-7.23 4.051-8.771 6.859-1.544 2.811-.079 4.315 3.086 3.37 3.163-.946 7.037-4.056 8.636-6.889 1.596-2.831.27-4.308-2.951-3.34zm10.596-19.073c-3.96 1.213-8.868 5.022-10.701 8.367-1.833 3.345.047 5.004 3.923 3.83 3.874-1.174 8.528-4.839 10.435-8.22 1.907-3.381.301-5.193-3.657-3.977zm11.448-20.624c-4.734 1.479-10.749 6.38-13.061 10.603-2.311 4.223-.116 6.24 4.507 4.815 4.623-1.425 10.194-5.857 12.604-10.128 2.41-4.268.685-6.764-4.05-5.29zm13.304-24.012c-5.551 1.748-12.929 8.207-15.985 13.797-3.053 5.59-.71 8.285 4.701 6.594 5.408-1.691 12.089-7.226 15.263-12.864 3.175-5.643 1.57-9.275-3.979-7.527zm.915-1.645c6.228-1.961 14.256-8.997 18.537-16.628 4.275-7.625 3.109-13.01-3.283-10.997-6.39 2.013-15.47 10.637-19.61 18.22-4.14 7.59-1.869 11.369 4.356 9.405zm-26.431 78.364c-2.983.937-6.518 3.659-7.947 6.155-1.432 2.5-.31 3.852 2.566 2.936 2.876-.92 6.483-3.767 8.023-6.286 1.534-2.514.34-3.741-2.642-2.805zm11.676-19.615c-3.981 1.216-8.239 4.419-9.87 7.257-1.632 2.847-.118 4.29 3.698 3.108 3.816-1.181 8.353-4.493 10.138-7.37 1.785-2.87.018-4.211-3.966-2.995zm11.534-19.349c-5.101 1.529-10.138 5.402-12.079 8.791-1.941 3.393-.154 5.055 4.71 3.579 4.867-1.476 10.482-5.373 12.628-8.805 2.146-3.435-.157-5.092-5.259-3.565zm12.359-20.895c-6.336 1.864-12.275 6.743-14.71 11.018-2.436 4.279-.543 6.398 5.477 4.603 6.021-1.796 12.906-6.513 15.603-10.841 2.696-4.331-.032-6.643-6.37-4.78zm14.203-24.24c-7.686 2.215-14.708 8.523-17.899 14.166-3.187 5.643-1.419 8.545 5.862 6.411 7.281-2.133 15.674-7.969 19.186-13.666 3.511-5.701.537-9.127-7.149-6.911zm.969-1.66c8.643-2.486 18.834-9.823 23.494-17.497 4.659-7.671 1.696-12.822-7.444-10.256-9.138 2.566-17.502 10.877-21.777 18.503-4.279 7.626-2.916 11.737 5.727 9.25zm-27.567 78.422c-2.946.94-6.65 3.691-8.302 6.213-1.651 2.526-.697 3.869 2.163 2.919 2.862-.947 6.613-3.82 8.352-6.338 1.736-2.514.736-3.735-2.213-2.794zm13.444-19.769c-3.874 1.144-8.572 4.402-10.469 7.285-1.898 2.886-.396 4.316 3.346 3.165 3.742-1.149 8.419-4.44 10.451-7.318 2.027-2.875.545-4.276-3.328-3.132zm13.314-19.543c-4.9 1.349-10.786 5.34-13.034 8.786-2.248 3.446-.185 5.065 4.528 3.712 4.709-1.354 10.438-5.163 12.875-8.603 2.438-3.44.531-5.24-4.369-3.895zm14.163-21.078c-6.018 1.546-13.366 6.623-16.143 10.961-2.776 4.339-.173 6.347 5.592 4.788 5.765-1.558 12.719-6.09 15.748-10.417 3.029-4.328.821-6.882-5.197-5.332zm15.966-24.381c-7.227 1.733-16.363 8.351-19.922 14.054-3.556 5.703-.492 8.389 6.412 6.632 6.902-1.756 15.303-7.281 19.181-12.966 3.88-5.683 1.553-9.457-5.671-7.72zm1.083-1.673c8.12-1.941 18.228-8.835 23.285-16.46 5.053-7.621 2.889-13.238-5.623-11.342-8.513 1.891-19.848 10.635-24.507 18.305-4.659 7.671-1.273 11.437 6.845 9.497zm-50.961 100.472c-2.123.785-5.08 3.141-6.64 5.336-1.561 2.19-1.167 3.376.922 2.566 2.088-.808 5.106-3.29 6.706-5.457 1.597-2.172 1.131-3.229-.988-2.445zm15.896-21.396c-2.914.945-6.732 3.678-8.557 6.169-1.826 2.495-1.025 3.786 1.823 2.809 2.847-.976 6.713-3.823 8.605-6.286 1.89-2.454 1.039-3.636-1.871-2.692zm14.836-19.453c-3.776 1.076-8.571 4.265-10.691 7.122-2.12 2.858-.859 4.29 2.816 3.166 3.673-1.118 8.45-4.333 10.674-7.15 2.22-2.812.976-4.215-2.799-3.138zm14.731-19.261c-4.717 1.185-10.666 5.027-13.184 8.452-2.519 3.422-.794 5.109 3.775 3.864 4.567-1.244 10.367-4.907 13.033-8.271 2.666-3.365 1.088-5.233-3.624-4.045zm15.563-20.799c-5.725 1.265-13.082 6.079-16.173 10.394-3.091 4.317-.943 6.49 4.586 5.145 5.527-1.345 12.509-5.637 15.798-9.871 3.284-4.237 1.511-6.931-4.211-5.668zm17.353-24.057c-6.803 1.303-15.87 7.523-19.784 13.197-3.913 5.673-1.439 8.633 5.116 7.216 6.552-1.415 14.918-6.595 19.08-12.152 4.161-5.563 2.388-9.565-4.412-8.261zm1.162-1.643c7.641-1.45 17.631-7.846 22.989-15.314 5.354-7.46 3.869-13.392-4.071-12.107-7.938 1.287-19.095 9.457-24.148 17.081-5.057 7.627-2.409 11.79 5.23 10.34zm-57.91 98.403c-2.132.828-5.172 3.155-6.827 5.272-1.655 2.116-1.322 3.195.784 2.33 2.106-.866 5.206-3.316 6.888-5.394 1.683-2.082 1.287-3.032-.845-2.208zm16.899-20.581c-2.879.949-6.782 3.617-8.736 6.023-1.959 2.411-1.273 3.613 1.558 2.61 2.832-1.004 6.779-3.787 8.784-6.143 2.003-2.351 1.274-3.437-1.606-2.49zm15.88-18.722c-3.683 1.02-8.541 4.085-10.83 6.854-2.29 2.768-1.217 4.148 2.393 3.051 3.609-1.099 8.451-4.192 10.816-6.882 2.363-2.691 1.306-4.041-2.379-3.023zm15.794-18.555c-4.545 1.042-10.518 4.682-13.243 8.007-2.725 3.326-1.278 5.018 3.157 3.868 4.438-1.148 10.27-4.623 13.104-7.839 2.833-3.222 1.527-5.082-3.018-4.036zm16.625-20.092c-5.456 1.011-12.779 5.518-16.114 9.722-3.335 4.208-1.567 6.454 3.745 5.297 5.313-1.157 12.281-5.17 15.76-9.23 3.479-4.06 2.065-6.804-3.391-5.789zm18.387-23.307c-6.417.918-15.375 6.683-19.564 12.225-4.187 5.541-2.21 8.666 4.029 7.553 6.235-1.113 14.522-5.892 18.888-11.238 4.372-5.344 3.064-9.456-3.353-8.54zm1.233-1.601c7.201-1.012 17.039-6.869 22.609-14.066 5.569-7.195 4.653-13.308-2.762-12.562-7.417.743-18.365 8.299-23.72 15.759-5.355 7.461-3.328 11.878 3.873 10.869zm-82.585 117.056c-1.466.711-3.729 2.6-5.087 4.275-1.36 1.68-1.301 2.484.158 1.747 1.454-.736 3.762-2.706 5.13-4.36 1.364-1.652 1.26-2.372-.201-1.662zm19.463-22.827c-2.137.868-5.237 3.143-6.958 5.151-1.721 2.006-1.427 2.946.693 2.03 2.118-.917 5.279-3.303 7.018-5.261 1.739-1.958 1.383-2.784-.753-1.92zm17.6-19.391c-2.85.952-6.801 3.522-8.849 5.801-2.052 2.279-1.456 3.354 1.364 2.324 2.817-1.029 6.815-3.706 8.897-5.912 2.079-2.201 1.436-3.168-1.412-2.213zm16.614-17.603c-3.6.971-8.488 3.874-10.898 6.496-2.412 2.62-1.487 3.896 2.064 2.815 3.549-1.079 8.424-4.01 10.886-6.524 2.462-2.513 1.547-3.757-2.052-2.787zm16.557-17.478c-4.391.918-10.36 4.318-13.235 7.473-2.878 3.157-1.648 4.786 2.669 3.72 4.315-1.068 10.15-4.308 13.101-7.319 2.946-3.009 1.852-4.794-2.535-3.874zm17.372-19.01c-5.213.792-12.475 4.951-15.986 8.968-3.513 4.012-2.055 6.244 3.063 5.25 5.116-.991 12.036-4.675 15.644-8.49 3.609-3.812 2.491-6.522-2.721-5.728zm19.115-22.182c-6.071.58-14.888 5.874-19.274 11.193-4.385 5.319-2.818 8.488 3.132 7.641 5.947-.849 14.13-5.194 18.635-10.242 4.508-5.047 3.574-9.171-2.493-8.592zm1.277-1.521c6.807-.626 16.462-5.926 22.173-12.763 5.71-6.837 5.256-13.004-1.69-12.736-6.946.267-17.652 7.184-23.223 14.377-5.571 7.193-4.067 11.749 2.74 11.122zm-86.602 109.367c-1.483.758-3.784 2.596-5.165 4.165-1.382 1.568-1.318 2.244.161 1.454 1.481-.784 3.82-2.705 5.205-4.245 1.384-1.539 1.284-2.13-.201-1.374zm19.818-21.189c-2.141.902-5.274 3.096-7.036 4.957-1.761 1.865-1.488 2.65.647 1.689 2.132-.961 5.323-3.261 7.093-5.066 1.769-1.805 1.436-2.48-.704-1.58zm18.011-17.866c-2.822.958-6.801 3.399-8.909 5.506-2.11 2.109-1.571 3.017 1.234 1.964 2.803-1.053 6.824-3.591 8.952-5.609 2.124-2.016 1.541-2.824-1.277-1.861zm17.076-16.161c-3.525.931-8.413 3.647-10.905 6.07-2.491 2.423-1.677 3.542 1.82 2.475 3.496-1.063 8.371-3.802 10.893-6.089 2.519-2.289 1.714-3.387-1.808-2.456zm17.024-16.068c-4.251.813-10.179 3.935-13.157 6.864-2.977 2.93-1.924 4.428 2.285 3.43 4.209-.998 10.016-3.969 13.034-6.715 3.019-2.745 2.088-4.394-2.162-3.579zm17.855-17.594c-4.997.602-12.165 4.387-15.794 8.134-3.629 3.752-2.417 5.894 2.524 5.041 4.941-.853 11.793-4.181 15.477-7.682 3.684-3.5 2.79-6.096-2.207-5.493zm19.563-20.719c-5.759.29-14.41 5.072-18.929 10.088-4.519 5.012-3.282 8.137 2.41 7.517 5.691-.62 13.742-4.5 18.328-9.181 4.587-4.682 3.948-8.712-1.809-8.424zm1.308-1.43c6.456-.297 15.907-5.001 21.694-11.4 5.781-6.398 5.696-12.507-.832-12.65-6.526-.144-16.978 6.109-22.688 12.944-5.713 6.836-4.627 11.401 1.826 11.106zm-89.005 99.755c-1.502.797-3.825 2.567-5.21 4.006-1.389 1.441-1.313 1.973.19 1.142 1.499-.831 3.857-2.679 5.245-4.084 1.384-1.406 1.273-1.86-.225-1.064zm19.938-19.263c-2.142.934-5.297 3.012-7.073 4.707-1.776 1.695-1.505 2.31.637 1.31 2.141-1.002 5.345-3.189 7.123-4.815 1.777-1.631 1.451-2.136-.687-1.202zm18.186-16.06c-2.795.968-6.778 3.249-8.915 5.148-2.141 1.902-1.634 2.624 1.155 1.551 2.79-1.075 6.813-3.454 8.958-5.25 2.14-1.795 1.596-2.417-1.198-1.449zm17.281-14.432c-3.454.902-8.321 3.393-10.855 5.57-2.535 2.178-1.796 3.112 1.651 2.054 3.446-1.052 8.3-3.569 10.846-5.592 2.542-2.021 1.813-2.928-1.642-2.032zm17.262-14.371c-4.128.725-9.997 3.542-13.03 6.193-3.032 2.647-2.105 3.973 2.008 3.031 4.113-.943 9.867-3.616 12.914-6.048 3.048-2.431 2.237-3.903-1.892-3.176zm18.095-15.889c-4.805.442-11.864 3.821-15.557 7.249-3.698 3.425-2.672 5.406 2.113 4.667 4.786-.735 11.543-3.683 15.258-6.814 3.713-3.135 2.991-5.547-1.814-5.102zm19.772-18.977c-5.487.042-13.958 4.302-18.551 8.937-4.589 4.637-3.608 7.636 1.86 7.205 5.465-.431 13.37-3.828 17.979-8.077 4.614-4.249 4.198-8.11-1.288-8.065zm1.315-1.319c6.146-.016 15.386-4.125 21.184-10.016 5.796-5.891 5.988-11.827-.171-12.315-6.161-.491-16.345 5.085-22.127 11.48-5.784 6.396-5.033 10.866 1.114 10.851zm-89.974 88.49c-1.514.832-3.84 2.52-5.218 3.817-1.38 1.297-1.283 1.673.237.805 1.514-.869 3.872-2.626 5.249-3.884 1.374-1.257 1.244-1.568-.268-.738zm19.845-17.094c-2.143.961-5.29 2.911-7.064 4.413-1.774 1.503-1.499 1.93.649.894 2.147-1.038 5.347-3.089 7.115-4.518 1.768-1.429 1.439-1.751-.7-.789zm18.152-14.015c-2.769.978-6.736 3.075-8.878 4.737-2.144 1.666-1.649 2.179 1.127 1.083 2.773-1.095 6.778-3.285 8.915-4.833 2.134-1.545 1.603-1.964-1.164-.987zm17.297-12.457c-3.395.873-8.219 3.122-10.762 5.023-2.546 1.896-1.854 2.606 1.549 1.556 3.4-1.049 8.215-3.321 10.758-5.044 2.537-1.728 1.849-2.412-1.545-1.535zm17.293-12.43c-4.022.656-9.813 3.148-12.863 5.471-3.05 2.324-2.209 3.418 1.819 2.516 4.027-.901 9.709-3.257 12.751-5.338 3.042-2.08 2.312-3.308-1.707-2.649zm18.114-13.952c-4.641.319-11.569 3.273-15.284 6.322-3.716 3.046-2.826 4.814 1.826 4.169 4.651-.645 11.298-3.197 15.002-5.916 3.705-2.727 3.097-4.895-1.544-4.575zm19.781-16.995c-5.253-.153-13.533 3.564-18.146 7.766-4.61 4.197-3.821 6.989 1.451 6.712 5.268-.28 13.015-3.186 17.606-6.952 4.594-3.771 4.337-7.374-.911-7.526zm1.306-1.197c5.883.209 14.903-3.29 20.668-8.618 5.761-5.328 6.154-10.994.309-11.764-5.844-.769-15.757 4.12-21.553 10.011-5.799 5.89-5.304 10.164.576 10.371zm-89.767 75.874c-1.523.858-3.842 2.438-5.201 3.578-1.361 1.137-1.237 1.368.29.466 1.528-.901 3.879-2.552 5.235-3.649 1.35-1.096 1.196-1.257-.324-.395zm19.566-14.743c-2.138.987-5.271 2.785-7.025 4.075-1.754 1.29-1.458 1.519.692.452s5.329-2.957 7.073-4.168c1.744-1.211 1.395-1.346-.74-.359zm17.942-11.772c-2.747.985-6.677 2.885-8.799 4.288-2.126 1.403-1.629 1.68 1.133.567 2.76-1.116 6.728-3.097 8.838-4.372 2.107-1.275 1.572-1.472-1.172-.483zm17.143-10.29c-3.341.861-8.108 2.843-10.637 4.429-2.53 1.586-1.854 2.038 1.507.988 3.362-1.048 8.122-3.05 10.633-4.449 2.51-1.398 1.839-1.828-1.503-.968zm17.147-10.304c-3.929.607-9.63 2.762-12.664 4.719-3.034 1.96-2.244 2.786 1.71 1.917 3.954-.873 9.551-2.9 12.561-4.597 3.009-1.697 2.32-2.645-1.607-2.039zm17.97-11.813c-4.501.223-11.292 2.745-14.993 5.372-3.699 2.63-2.896 4.116 1.64 3.537 4.536-.576 11.064-2.719 14.728-4.992 3.661-2.277 3.124-4.139-1.375-3.917zm19.611-14.816c-5.055-.305-13.14 2.875-17.727 6.589-4.586 3.714-3.926 6.228 1.179 6.063 5.102-.166 12.688-2.575 17.225-5.822 4.537-3.248 4.376-6.53-.677-6.83zm1.299-1.059c5.656.377 14.463-2.525 20.151-7.25 5.687-4.722 6.201-10.027.62-11.01-5.58-.987-15.219 3.235-20.982 8.56-5.761 5.329-5.445 9.322.211 9.7zm-22.091 22.77c-1.523.917-3.725 1.992-4.937 2.431-1.213.442-.968.043.565-.918 1.53-.96 3.754-2.091 4.96-2.485 1.202-.397.931.057-.588.972zm17.464-4.28c-2.11 1.044-5.08 2.136-6.651 2.481-1.574.343-1.139-.262.989-1.395 2.131-1.133 5.133-2.302 6.687-2.56 1.554-.258 1.083.426-1.025 1.474zm16.091-1.777c-2.672 1.035-6.378 2.016-8.293 2.24-1.918.22-1.295-.512 1.408-1.69 2.704-1.175 6.439-2.233 8.326-2.315 1.885-.081 1.232.729-1.441 1.765zm15.457-.594c-3.21.884-7.678 1.732-9.975 1.902-2.295.174-1.522-.557 1.73-1.649 3.252-1.091 7.716-1.966 9.973-1.93 2.253.034 1.481.793-1.728 1.677zm15.533-.757c-3.718.595-9.017 1.368-11.788 1.668-2.772.301-1.924-.216 1.854-1.099 3.777-.886 9.009-1.569 11.722-1.578 2.712-.012 1.932.414-1.788 1.009z" fill="#F2F2F2"/><path d="M817.543 337.496c-4.198.159-10.457 1.015-13.85 1.716-3.394.702-2.587.688 1.689.138 4.278-.55 10.345-1.115 13.66-1.427 3.314-.311 2.699-.587-1.499-.427zm-58.908-3.654c-1.511.918-3.672 1.844-4.841 2.108-1.171.261-.895-.276.626-1.237 1.52-.961 3.703-1.944 4.865-2.163 1.157-.22.861.376-.65 1.292zm16.846-1.64c-2.097 1.051-5.011 1.95-6.529 2.054-1.518.103-1.048-.697 1.068-1.836 2.12-1.137 5.064-2.11 6.563-2.129 1.499-.019.994.857-1.102 1.911zm15.557.746c-2.659 1.047-6.3 1.802-8.152 1.721-1.854-.083-1.191-1.072 1.498-2.258 2.689-1.188 6.36-2.011 8.184-1.791 1.821.216 1.13 1.277-1.53 2.328zm14.943 1.855c-3.195.91-7.59 1.488-9.812 1.297-2.221-.191-1.401-1.233 1.836-2.346 3.235-1.115 7.63-1.715 9.811-1.323 2.181.394 1.359 1.459-1.835 2.372zm15.056 1.659c-3.705.635-8.919 1.096-11.606.968-2.686-.128-1.785-1.013 1.977-1.933 3.763-.922 8.916-1.3 11.545-.888 2.629.411 1.791 1.214-1.916 1.853zm33.247-2.45c-4.636-.347-11.891.401-15.993 1.31-4.102.912-3.423 1.259 1.315 1.107 4.738-.157 11.665-.362 15.663-.771 3.999-.41 3.651-1.301-.985-1.646zm-73.826-13.448c-1.497.913-3.612 1.701-4.742 1.791-1.13.091-.835-.586.672-1.539 1.505-.953 3.641-1.789 4.764-1.838 1.12-.048.8.677-.694 1.586zm16.27.919c-2.084 1.054-4.943 1.774-6.411 1.641s-.968-1.129 1.132-2.264c2.1-1.138 4.995-1.916 6.444-1.704 1.449.212.918 1.269-1.165 2.327zm15.042 3.199c-2.648 1.066-6.233 1.593-8.021 1.221-1.793-.376-1.091-1.615 1.584-2.812 2.675-1.196 6.284-1.797 8.051-1.29 1.763.508 1.035 1.816-1.614 2.881zm14.472 4.22c-3.19.947-7.519 1.264-9.67.723-2.151-.545-1.282-1.891 1.944-3.033 3.224-1.138 7.557-1.485 9.672-.748 2.115.738 1.242 2.111-1.946 3.058zm14.602 3.997c-3.708.696-8.858.865-11.461.322-2.602-.542-1.638-1.8 2.121-2.77s8.846-1.071 11.401-.256c2.554.815 1.647 2.003-2.061 2.704zm32.329 2.268c-4.664-.211-11.832.157-15.819.509-3.986.347-3.215.173 1.544-.094 4.755-.266 11.631-.142 15.525-.009 3.892.129 3.414-.189-1.25-.406zM670.18 386.526c-1.528.884-3.827 2.358-5.158 3.328-1.332.971-1.18 1.04.357.115a108.518 108.518 0 005.189-3.391c1.322-.925 1.137-.932-.388-.052zm19.166-12.23c-2.134 1.008-5.237 2.643-6.959 3.707-1.723 1.064-1.395 1.089.753-.002a185.432 185.432 0 007.006-3.799c1.708-.981 1.335-.913-.8.094zm17.608-9.38c-2.726.995-6.608 2.674-8.696 3.794-2.089 1.125-1.577 1.163 1.17.031a208.42 208.42 0 008.736-3.886c2.065-.987 1.515-.938-1.21.061zm16.83-7.976c-3.298.856-7.993 2.556-10.483 3.809-2.491 1.253-1.814 1.432 1.513.38 3.327-1.053 8.022-2.78 10.482-3.833 2.46-1.054 1.784-1.206-1.512-.356zm16.867-8.025c-3.852.576-9.452 2.38-12.445 3.949-2.993 1.565-2.221 2.093 1.672 1.238s9.403-2.541 12.355-3.829c2.952-1.288 2.271-1.935-1.582-1.358zm17.686-9.534c-4.385.161-11.038 2.25-14.689 4.424-3.65 2.176-2.896 3.341 1.544 2.805 4.443-.532 10.848-2.265 14.444-4.063 3.596-1.799 3.089-3.326-1.299-3.166z" fill="#F2F2F2"/><path d="M777.641 326.898c-4.895-.407-12.785 2.233-17.317 5.421-4.528 3.19-3.946 5.359 1.026 5.272 4.971-.087 12.395-2.004 16.848-4.701 4.455-2.697 4.338-5.586-.557-5.992zm1.276-.91c5.477.495 14.075-1.835 19.658-5.917 5.58-4.081 6.149-8.951.778-10.086-5.371-1.134-14.744 2.434-20.43 7.152-5.687 4.719-5.481 8.355-.006 8.851zm-86.559 47.595a374.984 374.984 0 00-5.097 3.047c-1.297.796-1.113.705.426-.237 1.537-.945 3.836-2.351 5.124-3.103 1.284-.756 1.075-.606-.453.293zm18.652-9.624c-2.128 1.024-5.19 2.488-6.868 3.316-1.677.828-1.316.646.828-.462 2.146-1.11 5.252-2.665 6.913-3.405 1.659-.746 1.254-.475-.873.551zm17.157-6.886c-2.705 1.01-6.532 2.464-8.571 3.291-2.039.829-1.498.612 1.234-.538 2.735-1.149 6.597-2.688 8.611-3.374 2.011-.689 1.434-.386-1.274.621zm16.436-5.555c-3.259.854-7.885 2.272-10.32 3.171-2.437.9-1.738.791 1.56-.27 3.296-1.064 7.916-2.507 10.315-3.201 2.398-.692 1.703-.558-1.555.3zm16.481-5.644c-3.791.563-9.29 2.017-12.22 3.172-2.932 1.152-2.151 1.352 1.691.502 3.844-.851 9.256-2.199 12.137-3.066 2.881-.866 2.184-1.173-1.608-.608zm17.302-7.144c-4.298.126-10.81 1.786-14.391 3.482-3.58 1.696-2.837 2.497 1.53 1.984 4.367-.515 10.65-1.843 14.16-3.151 3.511-1.308 2.999-2.444-1.299-2.315zm18.885-10.061c-4.773-.463-12.474 1.66-16.919 4.296-4.443 2.636-3.892 4.405.974 4.361 4.866-.049 12.136-1.492 16.487-3.618 4.353-2.129 4.232-4.578-.542-5.039zm1.252-.758c5.339.561 13.749-1.215 19.203-4.638 5.452-3.422 6.018-7.778.808-8.997-5.209-1.218-14.342 1.712-19.922 5.793-5.583 4.081-5.427 7.281-.089 7.842zm-83.994 32.523a87.185 87.185 0 01-5.023 2.744c-1.257.62-1.04.374.497-.581 1.536-.956 3.802-2.228 5.049-2.804 1.244-.576 1.001-.271-.523.641zm18.077-6.959c-2.119 1.037-5.141 2.312-6.766 2.9-1.625.588-1.229.192.91-.933 2.14-1.126 5.2-2.484 6.807-2.984 1.607-.5 1.168-.019-.951 1.017z" fill="#F2F2F2"/><path d="M749.249 349.142c-2.687 1.023-6.457 2.231-8.436 2.758-1.98.527-1.4.054 1.318-1.108 2.718-1.165 6.519-2.463 8.471-2.847 1.948-.383 1.335.175-1.353 1.197zm15.96-3.087c-3.23.866-7.776 1.995-10.144 2.532-2.369.537-1.639.121 1.632-.953 3.272-1.073 7.814-2.233 10.143-2.56 2.327-.328 1.599.116-1.631.981zm16.027-3.204c-3.749.568-9.141 1.675-11.998 2.403-2.856.728-2.05.581 1.754-.282 3.806-.86 9.122-1.871 11.921-2.307 2.798-.437 2.07-.385-1.677.186zm16.844-4.704c-4.236.128-10.612 1.379-14.103 2.578-3.491 1.204-2.728 1.607 1.583 1.086 4.314-.517 10.482-1.456 13.896-2.267 3.414-.81 2.861-1.525-1.376-1.397zm18.414-7.574c-4.69-.47-12.223 1.158-16.563 3.221-4.337 2.065-3.772 3.396 1.022 3.35 4.791-.048 11.922-1.046 16.156-2.593 4.237-1.549 4.074-3.509-.615-3.978zm1.218-.601c5.243.567 13.487-.683 18.799-3.435 5.31-2.753 5.818-6.549.716-7.788-5.101-1.239-14.009 1.106-19.462 4.528-5.453 3.417-5.298 6.124-.053 6.695zm17.732 2.444c-4.642-.43-12.02.737-16.244 2.224-4.222 1.484-3.614 2.342 1.135 2.258 4.75-.081 11.766-.663 15.88-1.633 4.117-.974 3.872-2.417-.771-2.849zm1.179-.436c5.193.527 13.297-.269 18.463-2.355s5.573-5.256.528-6.446c-5.045-1.193-13.765.605-19.076 3.359-5.31 2.748-5.106 4.915.085 5.442z" fill="#F2F2F2"/><path d="M836.899 336.63c-4.185.221-10.345.709-13.638.914-3.294.204-2.422-.243 1.839-.846 4.263-.604 10.249-.828 13.466-.65 3.217.174 2.522.361-1.667.582zm18.541-2.901c5.182.43 13.192.054 18.219-1.38 5.024-1.438 5.289-3.95.249-5.029-5.042-1.082-13.607.226-18.773 2.312-5.167 2.086-4.876 3.667.305 4.097z" fill="#F2F2F2"/><path d="M856.259 335.403c-4.199.318-10.283.478-13.48.198-3.195-.276-2.252-1.174 2.019-1.852 4.269-.681 10.195-.6 13.325.043 3.13.642 2.338 1.296-1.864 1.611zm18.025-.365c5.215.28 13.176.252 18.073-.559 4.895-.814 4.989-2.634-.098-3.538-5.089-.903-13.549-.021-18.573 1.412-5.024 1.433-4.62 2.401.598 2.685z" fill="#F2F2F2"/></svg>